<svg width="1000" height="1000" viewBox="0 0 1000 1000" fill="none" xmlns="http://www.w3.org/2000/svg">
<g id="about 1">
<g id="freepik--background-simple--inject-294">
<path id="Vector" d="M422 348.14C485.36 302.14 502.5 213.8 571.56 173.88C632.28 138.78 740.74 129.5 802.24 168.76C870.8 212.52 877.72 300.5 837.36 367C792.96 440.16 706.1 449 635.52 483.8C511.86 544.86 257.04 754.8 140 560.32C103.68 499.96 105.4 370.62 190.6 352.32C272.5 334.88 332.74 412.88 422 348.14Z" fill="#9DE5E7"/>
<path id="Vector_2" opacity="0.9" d="M422 348.14C485.36 302.14 502.5 213.8 571.56 173.88C632.28 138.78 740.74 129.5 802.24 168.76C870.8 212.52 877.72 300.5 837.36 367C792.96 440.16 706.1 449 635.52 483.8C511.86 544.86 257.04 754.8 140 560.32C103.68 499.96 105.4 370.62 190.6 352.32C272.5 334.88 332.74 412.88 422 348.14Z" fill="white"/>
</g>
<g id="freepik--Shadow--inject-294">
<path id="freepik--path--inject-294" d="M500 855.12C714.165 855.12 887.78 844.984 887.78 832.48C887.78 819.976 714.165 809.84 500 809.84C285.835 809.84 112.22 819.976 112.22 832.48C112.22 844.984 285.835 855.12 500 855.12Z" fill="#F5F5F5"/>
</g>
<g id="freepik--Survey--inject-294">
<path id="Vector_3" d="M585.7 202.9H216.1L244.82 706.24H614.4L585.7 202.9Z" fill="#263238"/>
<path id="Vector_4" d="M592.88 202.9H223.28L252 706.24H621.6L592.88 202.9Z" fill="#9DE5E7"/>
<path id="Vector_5" opacity="0.5" d="M567.42 219.82H240.18L263.64 675.44H599.38L567.42 219.82Z" fill="black"/>
<path id="Vector_6" d="M240.18 219.82C264.5 371.7 247.82 523.58 272.18 675.44H607.88C583.56 523.58 600.24 371.7 575.88 219.82H240.18Z" fill="white"/>
<g id="Group" opacity="0.3">
<path id="Vector_7" opacity="0.3" d="M308.82 356.34C316.234 356.399 323.342 359.302 328.678 364.448C334.015 369.595 337.172 376.593 337.5 384C337.649 387.563 337.072 391.119 335.803 394.452C334.535 397.784 332.601 400.824 330.12 403.385C327.639 405.947 324.663 407.977 321.372 409.351C318.082 410.725 314.546 411.416 310.98 411.38C303.612 411.319 296.55 408.425 291.259 403.297C285.968 398.17 282.853 391.202 282.56 383.84C282.406 380.288 282.969 376.741 284.217 373.411C285.464 370.081 287.37 367.037 289.82 364.46C292.278 361.906 295.23 359.88 298.497 358.505C301.763 357.129 305.276 356.434 308.82 356.46V356.34ZM308.62 350.68C304.309 350.653 300.038 351.506 296.068 353.186C292.098 354.866 288.512 357.338 285.53 360.451C282.548 363.564 280.232 367.253 278.724 371.292C277.216 375.33 276.548 379.634 276.76 383.94C277.109 392.829 280.867 401.243 287.253 407.435C293.639 413.628 302.164 417.125 311.06 417.2C315.391 417.236 319.683 416.392 323.678 414.72C327.673 413.049 331.288 410.583 334.302 407.474C337.316 404.364 339.668 400.675 341.214 396.63C342.761 392.584 343.471 388.267 343.3 383.94C342.87 375.012 339.036 366.589 332.585 360.402C326.134 354.216 317.558 350.736 308.62 350.68V350.68Z" fill="#9DE5E7"/>
</g>
<path id="Vector_8" d="M494.44 605.84H388.44C387.647 605.827 386.86 605.982 386.132 606.297C385.404 606.611 384.751 607.078 384.218 607.664C383.684 608.251 383.281 608.945 383.037 609.699C382.793 610.454 382.712 611.252 382.8 612.04V612.04C382.993 613.726 383.79 615.285 385.044 616.429C386.298 617.572 387.923 618.223 389.62 618.26H495.62C496.413 618.275 497.201 618.119 497.929 617.803C498.657 617.486 499.308 617.018 499.839 616.428C500.37 615.838 500.768 615.141 501.007 614.384C501.245 613.627 501.318 612.828 501.22 612.04V612.04C501.032 610.361 500.241 608.807 498.994 607.667C497.747 606.527 496.129 605.878 494.44 605.84V605.84Z" fill="#E0E0E0"/>
<path id="Vector_9" d="M551.14 579.74H386.3C385.502 579.725 384.71 579.879 383.976 580.192C383.242 580.504 382.583 580.968 382.041 581.554C381.499 582.139 381.087 582.833 380.831 583.589C380.576 584.345 380.484 585.146 380.56 585.94C380.704 587.621 381.467 589.188 382.701 590.337C383.936 591.487 385.553 592.136 387.24 592.16H552C552.799 592.183 553.594 592.036 554.332 591.73C555.07 591.424 555.735 590.964 556.283 590.382C556.831 589.8 557.25 589.109 557.511 588.354C557.772 587.598 557.871 586.796 557.8 586V586C557.67 584.314 556.916 582.737 555.683 581.579C554.451 580.421 552.831 579.765 551.14 579.74V579.74Z" fill="#E0E0E0"/>
<g id="Group_2" opacity="0.3">
<path id="Vector_10" opacity="0.3" d="M312.2 464C319.559 464.052 326.613 466.948 331.887 472.08C337.161 477.213 340.247 484.185 340.5 491.54C340.635 495.1 340.051 498.652 338.783 501.981C337.515 505.311 335.589 508.351 333.12 510.92C330.649 513.479 327.683 515.508 324.403 516.883C321.123 518.259 317.597 518.952 314.04 518.92C306.663 518.869 299.589 515.98 294.286 510.852C288.983 505.724 285.858 498.751 285.56 491.38C285.439 487.814 286.039 484.26 287.326 480.932C288.612 477.604 290.558 474.571 293.046 472.013C295.534 469.456 298.513 467.428 301.805 466.051C305.096 464.674 308.632 463.976 312.2 464V464ZM312.2 458.2C307.867 458.173 303.572 459.022 299.575 460.696C295.577 462.369 291.959 464.833 288.937 467.939C285.915 471.045 283.552 474.729 281.988 478.771C280.425 482.813 279.694 487.129 279.84 491.46C280.195 500.373 283.973 508.806 290.388 515.005C296.802 521.204 305.36 524.69 314.28 524.74C318.601 524.757 322.88 523.899 326.86 522.217C330.84 520.536 334.438 518.065 337.438 514.956C340.437 511.846 342.776 508.161 344.313 504.123C345.85 500.085 346.553 495.777 346.38 491.46C346.081 482.575 342.355 474.151 335.984 467.951C329.613 461.751 321.09 458.257 312.2 458.2V458.2Z" fill="#9DE5E7"/>
</g>
<path id="Vector_11" d="M435.6 376.98H378.9C377.234 376.966 375.637 376.313 374.438 375.156C373.24 373.998 372.532 372.425 372.46 370.76V370.76C372.433 369.955 372.569 369.154 372.858 368.403C373.148 367.651 373.585 366.966 374.145 366.388C374.705 365.809 375.375 365.349 376.117 365.035C376.858 364.721 377.655 364.56 378.46 364.56H435.14C436.807 364.573 438.406 365.222 439.61 366.374C440.814 367.527 441.533 369.095 441.62 370.76V370.76C441.65 371.568 441.516 372.374 441.226 373.128C440.937 373.883 440.498 374.572 439.935 375.153C439.373 375.734 438.699 376.195 437.954 376.509C437.209 376.823 436.409 376.983 435.6 376.98V376.98Z" fill="#E0E0E0"/>
<path id="Vector_12" d="M501.04 376.98H462.64C460.972 376.966 459.373 376.314 458.171 375.157C456.969 374 456.257 372.426 456.18 370.76V370.76C456.153 369.955 456.289 369.154 456.578 368.403C456.868 367.651 457.305 366.966 457.865 366.388C458.425 365.809 459.095 365.349 459.837 365.035C460.578 364.721 461.375 364.56 462.18 364.56H500.6C502.265 364.573 503.861 365.223 505.063 366.376C506.264 367.529 506.978 369.097 507.06 370.76V370.76C507.09 371.568 506.956 372.374 506.666 373.128C506.377 373.883 505.938 374.572 505.375 375.153C504.813 375.734 504.139 376.195 503.394 376.509C502.649 376.823 501.849 376.983 501.04 376.98V376.98Z" fill="#E0E0E0"/>
<path id="Vector_13" d="M532 403.08H379.8C378.134 403.071 376.537 402.419 375.34 401.26C374.144 400.101 373.442 398.524 373.38 396.86V396.86C373.353 396.055 373.489 395.254 373.778 394.502C374.068 393.751 374.505 393.066 375.065 392.487C375.625 391.909 376.295 391.449 377.037 391.135C377.778 390.821 378.575 390.66 379.38 390.66H531.56C533.22 390.669 534.813 391.319 536.005 392.474C537.198 393.63 537.898 395.201 537.96 396.86C537.989 397.663 537.857 398.464 537.572 399.214C537.286 399.965 536.852 400.651 536.296 401.231C535.74 401.811 535.074 402.274 534.336 402.592C533.598 402.909 532.803 403.075 532 403.08V403.08Z" fill="#E0E0E0"/>
<g id="Group_3" opacity="0.3">
<path id="Vector_14" opacity="0.3" d="M316.54 571.52C324.001 571.666 331.145 574.559 336.607 579.644C342.068 584.729 345.462 591.649 346.14 599.08C346.499 602.562 346.131 606.08 345.061 609.412C343.99 612.745 342.24 615.819 339.92 618.44C337.581 621.016 334.719 623.062 331.525 624.442C328.331 625.822 324.879 626.503 321.4 626.44C313.875 626.318 306.653 623.453 301.092 618.381C295.531 613.31 292.013 606.382 291.2 598.9C290.857 595.392 291.261 591.852 292.384 588.512C293.508 585.171 295.327 582.107 297.72 579.52C300.128 576.951 303.046 574.913 306.286 573.535C309.527 572.158 313.019 571.472 316.54 571.52V571.52ZM316.26 565.74C311.977 565.656 307.724 566.478 303.781 568.153C299.838 569.828 296.293 572.317 293.38 575.457C290.466 578.598 288.249 582.318 286.873 586.376C285.498 590.433 284.996 594.735 285.4 599C286.94 617.36 303.6 632.26 321.96 632.26C340.32 632.26 353.48 617.36 351.96 599C351.167 590.03 347.083 581.67 340.496 575.53C333.909 569.389 325.284 565.902 316.28 565.74H316.26Z" fill="#9DE5E7"/>
</g>
<path id="Vector_15" d="M558 498.26H382.38C381.575 498.26 380.778 498.421 380.037 498.735C379.295 499.049 378.625 499.509 378.065 500.088C377.505 500.666 377.068 501.351 376.778 502.102C376.489 502.854 376.353 503.655 376.38 504.46V504.46C376.452 506.119 377.158 507.688 378.352 508.841C379.547 509.995 381.139 510.646 382.8 510.66H558.5C559.305 510.66 560.102 510.499 560.843 510.185C561.585 509.871 562.255 509.411 562.815 508.833C563.375 508.254 563.812 507.569 564.102 506.818C564.391 506.066 564.527 505.265 564.5 504.46V504.46C564.438 502.784 563.723 501.198 562.509 500.04C561.295 498.882 559.678 498.243 558 498.26V498.26Z" fill="#E0E0E0"/>
<path id="Vector_16" d="M516.38 472.14H381.62C380.813 472.14 380.015 472.302 379.272 472.617C378.529 472.932 377.858 473.394 377.298 473.974C376.738 474.555 376.3 475.243 376.012 475.996C375.724 476.75 375.59 477.554 375.62 478.36V478.36C375.677 480.017 376.373 481.589 377.562 482.744C378.751 483.9 380.342 484.551 382 484.56H516.78C517.585 484.56 518.382 484.399 519.123 484.085C519.865 483.771 520.535 483.311 521.095 482.733C521.655 482.154 522.092 481.469 522.382 480.718C522.671 479.966 522.807 479.165 522.78 478.36V478.36C522.733 476.694 522.038 475.112 520.843 473.95C519.648 472.789 518.047 472.139 516.38 472.14V472.14Z" fill="#E0E0E0"/>
<path id="Vector_17" d="M311.86 403.44L309.5 399.56C304.32 391.1 293.5 383.56 289.78 381.34L292.58 376.38C299.926 380.827 306.471 386.479 311.94 393.1C320.44 381.68 332.86 369.94 349.68 357.26L353.3 361.94C335.3 375.48 322.54 387.94 314.36 399.8C313.54 401.02 312.7 402.24 311.86 403.44Z" fill="#9DE5E7"/>
<path id="Vector_18" d="M314.86 511.04C314.08 509.74 313.28 508.44 312.48 507.16C307.28 498.7 296.48 491.16 292.8 488.92L295.64 483.96C302.948 488.419 309.458 494.071 314.9 500.68C323.42 489.28 335.94 477.52 353.02 464.84L356.56 469.52C338.32 483.06 325.48 495.52 317.34 507.38L314.86 511.04Z" fill="#9DE5E7"/>
<path id="Vector_19" d="M321.72 618.88L319.08 615C313.32 606.54 302.16 599 298.32 596.78L300.92 591.82C308.478 596.299 315.287 601.934 321.1 608.52C328.94 597.12 340.86 585.36 357.42 572.7L361.16 577.38C343.48 590.92 331.34 603.38 323.96 615.24L321.72 618.88Z" fill="#9DE5E7"/>
<path id="Vector_20" d="M448.2 258C444.68 265.68 441.073 273.353 437.38 281.02C444.994 284.807 451.503 290.492 456.282 297.526C461.06 304.56 463.945 312.707 464.66 321.18H491.24C489.48 294 472 270.34 448.2 258Z" fill="#9DE5E7"/>
<path id="Vector_21" d="M346.94 321.22H373.52C372.868 313.702 374.238 306.146 377.487 299.335C380.736 292.524 385.747 286.705 392 282.48C386.827 274.8 381.573 267.12 376.24 259.44C356.84 272 345.24 295.02 346.94 321.22Z" fill="#263238"/>
<path id="Vector_22" d="M412.24 249.08C399.487 248.954 386.975 252.555 376.24 259.44C381.573 267.12 386.827 274.8 392 282.48C398.929 277.952 407.042 275.572 415.32 275.64C422.978 275.684 430.517 277.542 437.32 281.06C441 273.38 444.607 265.707 448.14 258.04C437.06 252.232 424.75 249.16 412.24 249.08V249.08Z" fill="#9DE5E7"/>
<path id="Vector_23" opacity="0.5" d="M412.24 249.08C399.487 248.954 386.975 252.555 376.24 259.44C381.573 267.12 386.827 274.8 392 282.48C398.929 277.952 407.042 275.572 415.32 275.64C422.978 275.684 430.517 277.542 437.32 281.06C441 273.38 444.607 265.707 448.14 258.04C437.06 252.232 424.75 249.16 412.24 249.08V249.08Z" fill="#263238"/>
<path id="Vector_24" d="M444.72 303.02C444.72 303.02 417.88 314 415.04 316C414.362 316.514 413.793 317.158 413.367 317.895C412.942 318.631 412.668 319.446 412.561 320.29C412.455 321.134 412.519 321.991 412.749 322.81C412.979 323.629 413.37 324.394 413.9 325.06C414.902 326.483 416.418 327.46 418.128 327.785C419.837 328.109 421.606 327.756 423.06 326.8C426 324.68 444.76 303.02 444.72 303.02ZM416.52 323.02C416.259 322.692 416.066 322.316 415.953 321.913C415.839 321.509 415.808 321.088 415.86 320.672C415.912 320.256 416.047 319.855 416.257 319.493C416.466 319.13 416.746 318.813 417.08 318.56C417.8 318.097 418.671 317.928 419.512 318.088C420.353 318.248 421.1 318.725 421.6 319.42C421.861 319.748 422.054 320.124 422.167 320.527C422.281 320.931 422.312 321.352 422.26 321.768C422.208 322.184 422.073 322.585 421.863 322.947C421.654 323.31 421.374 323.627 421.04 323.88C420.329 324.352 419.465 324.534 418.625 324.389C417.785 324.244 417.031 323.783 416.52 323.1V323.02Z" fill="#263238"/>
<path id="Vector_25" d="M364 288.16C364.02 288.35 363.999 288.542 363.94 288.724C363.88 288.905 363.783 289.072 363.655 289.214C363.526 289.355 363.37 289.468 363.195 289.545C363.02 289.622 362.831 289.661 362.64 289.66C362.23 289.657 361.835 289.502 361.532 289.225C361.229 288.948 361.04 288.569 361 288.16C360.977 287.969 360.995 287.776 361.054 287.593C361.112 287.41 361.209 287.242 361.338 287.1C361.467 286.957 361.625 286.844 361.801 286.769C361.977 286.693 362.168 286.656 362.36 286.66C362.77 286.663 363.165 286.818 363.468 287.095C363.771 287.372 363.96 287.751 364 288.16V288.16Z" fill="#263238"/>
<path id="Vector_26" d="M371.16 288.16C371.183 288.351 371.165 288.544 371.106 288.727C371.048 288.91 370.951 289.078 370.822 289.22C370.693 289.363 370.535 289.475 370.359 289.551C370.183 289.627 369.992 289.664 369.8 289.66C369.392 289.648 369.002 289.491 368.701 289.215C368.4 288.94 368.208 288.565 368.16 288.16C368.137 287.969 368.155 287.776 368.214 287.593C368.272 287.41 368.369 287.242 368.498 287.1C368.627 286.957 368.785 286.844 368.961 286.769C369.137 286.693 369.328 286.656 369.52 286.66C369.932 286.658 370.329 286.812 370.633 287.09C370.937 287.368 371.125 287.75 371.16 288.16V288.16Z" fill="#263238"/>
<path id="Vector_27" d="M362 296C361.908 296.001 361.816 295.984 361.73 295.95C361.644 295.916 361.566 295.865 361.5 295.8C361.363 295.662 361.286 295.475 361.286 295.28C361.286 295.085 361.363 294.899 361.5 294.76C362.149 294.07 362.933 293.522 363.804 293.151C364.675 292.779 365.613 292.591 366.56 292.6C368.541 292.621 370.444 293.377 371.9 294.72C371.97 294.787 372.026 294.868 372.064 294.957C372.102 295.047 372.122 295.143 372.122 295.24C372.122 295.337 372.102 295.433 372.064 295.523C372.026 295.612 371.97 295.693 371.9 295.76C371.756 295.894 371.567 295.968 371.37 295.968C371.173 295.968 370.984 295.894 370.84 295.76C369.656 294.656 368.099 294.041 366.48 294.04C365.734 294.023 364.994 294.162 364.305 294.448C363.616 294.734 362.995 295.16 362.48 295.7C362.363 295.857 362.192 295.964 362 296V296Z" fill="#263238"/>
<path id="Vector_28" d="M513.48 221.12C507.24 207.98 492.68 199.28 476.98 199.28H444.98C442.783 199.377 440.599 198.892 438.65 197.873C436.701 196.855 435.055 195.339 433.88 193.48C429.42 185.12 418.78 179.16 406.7 179.16C394.62 179.16 384.7 185.16 381.18 193.48C379.72 197 375.54 199.28 370.74 199.28H338.74C323.04 199.28 309.46 207.98 304.74 221.12C304.565 221.579 304.497 222.071 304.54 222.56C304.591 223.586 305.035 224.553 305.78 225.26C306.525 225.967 307.513 226.361 308.54 226.36H510.3C510.917 226.361 511.523 226.204 512.061 225.902C512.598 225.6 513.049 225.164 513.369 224.637C513.689 224.11 513.867 223.51 513.886 222.893C513.906 222.277 513.766 221.666 513.48 221.12V221.12ZM408 202.9C405.613 202.851 403.331 201.91 401.602 200.263C399.874 198.616 398.824 196.382 398.66 194C398.58 192.853 398.738 191.702 399.125 190.619C399.512 189.536 400.12 188.545 400.909 187.709C401.698 186.872 402.653 186.209 403.711 185.76C404.77 185.311 405.91 185.086 407.06 185.1C409.462 185.125 411.767 186.055 413.513 187.705C415.259 189.355 416.319 191.603 416.48 194C416.561 195.154 416.4 196.312 416.008 197.401C415.617 198.489 415.002 199.484 414.204 200.321C413.406 201.159 412.442 201.821 411.374 202.265C410.306 202.709 409.157 202.925 408 202.9V202.9Z" fill="#263238"/>
</g>
<g id="freepik--Character--inject-294">
<path id="Vector_29" d="M720.84 818.22C719.275 818.413 717.694 818.021 716.4 817.12C716.23 816.909 716.126 816.652 716.101 816.381C716.076 816.111 716.131 815.839 716.26 815.6C716.356 815.394 716.498 815.213 716.674 815.071C716.851 814.929 717.059 814.829 717.28 814.78C719.64 814.12 725.1 817.04 725.28 817.18C725.348 817.21 725.405 817.261 725.441 817.326C725.477 817.391 725.491 817.466 725.48 817.54C725.477 817.607 725.452 817.671 725.408 817.721C725.365 817.772 725.305 817.807 725.24 817.82C723.787 818.079 722.315 818.213 720.84 818.22V818.22ZM718.2 815.38C717.981 815.347 717.759 815.347 717.54 815.38C717.404 815.405 717.275 815.462 717.164 815.545C717.053 815.628 716.962 815.736 716.9 815.86C716.7 816.3 716.9 816.52 716.9 816.64C717.7 817.58 721.42 817.6 724.1 817.22C722.26 816.258 720.261 815.634 718.2 815.38Z" fill="#9DE5E7"/>
<path id="Vector_30" d="M725.24 817.82H725.1C723.24 817.02 719.36 813.82 719.44 812.18C719.44 811.78 719.68 811.3 720.64 811.2C721.359 811.139 722.074 811.353 722.64 811.8C724.136 813.368 725.149 815.332 725.56 817.46C725.585 817.51 725.598 817.565 725.598 817.62C725.598 817.676 725.585 817.73 725.56 817.78C725.514 817.813 725.461 817.833 725.405 817.84C725.349 817.847 725.292 817.84 725.24 817.82V817.82ZM720.98 811.82H720.78C720.16 811.82 720.14 812.12 720.14 812.2C720.14 813.2 722.76 815.7 724.7 816.78C724.32 815.072 723.468 813.506 722.24 812.26C721.877 811.988 721.433 811.847 720.98 811.86V811.82Z" fill="#9DE5E7"/>
<path id="Vector_31" d="M741.36 817.48H726.66L721.4 783.44H736.1L741.36 817.48Z" fill="#E7B29D"/>
<path id="Vector_32" d="M726.56 815.78H742.56C742.862 815.788 743.153 815.888 743.397 816.067C743.64 816.246 743.822 816.495 743.92 816.78L748.28 829.84C748.372 830.133 748.396 830.443 748.349 830.746C748.303 831.049 748.187 831.337 748.011 831.589C747.835 831.84 747.604 832.048 747.335 832.195C747.066 832.343 746.767 832.427 746.46 832.44C740.66 832.44 732.26 832.02 724.98 832.02C716.48 832.02 717.24 832.48 707.26 832.48C701.26 832.48 698.88 826.38 701.26 825.82C712.48 823.32 713.78 823.04 723.02 816.92C724.055 816.186 725.291 815.788 726.56 815.78V815.78Z" fill="#263238"/>
<path id="Vector_33" opacity="0.2" d="M721.4 783.46L724.12 801H738.82L736.1 783.46H721.4Z" fill="black"/>
<path id="Vector_34" d="M739.68 450.9L729.68 461L745 466.42C745 466.42 751 458.18 746.78 452.54L739.68 450.9Z" fill="#E7B29D"/>
<path id="Vector_35" d="M726.32 475.12L741.62 477.36L745.04 466.42L729.72 461L726.32 475.12Z" fill="#E7B29D"/>
<path id="Vector_36" d="M746.36 326.54C747.66 329.34 748.7 331.72 749.74 334.32C750.78 336.92 751.74 339.42 752.74 341.98C754.64 347.12 756.34 352.36 757.92 357.66C759.528 363.022 760.863 368.463 761.92 373.96L762.68 378.16L763.3 382.44C763.52 383.86 763.66 385.34 763.78 386.8C763.9 388.26 764.1 389.58 764.1 391.42V394.02V396.32L763.98 398.58L763.76 400.72C763.5 403.6 763.12 406.3 762.76 409.04C761.96 414.44 761.04 419.72 760.02 425.04C757.9 435.5 755.58 445.72 752.78 456.02L734.56 452.42C735.72 442.26 736.92 431.94 737.88 421.78C738.34 416.7 738.84 411.64 739.12 406.68C739.24 404.24 739.38 401.76 739.38 399.42V397.66V396.04V394.42L739.24 393.1C739.149 392.046 739.002 390.998 738.8 389.96C738.62 388.84 738.46 387.72 738.2 386.58L737.46 383.16L736.6 379.72C735.36 375.12 733.96 370.5 732.36 365.88C730.76 361.26 728.98 356.66 727.1 352.1C726.18 349.8 725.22 347.52 724.22 345.28C723.22 343.04 722.22 340.7 721.24 338.76L746.36 326.54Z" fill="#263238"/>
<path id="Vector_37" d="M677.3 443.74C677.3 443.74 679.74 556.22 686.34 601.02C693.22 647.62 718.34 797.6 718.34 797.6H743.22C743.22 797.6 734.3 654.86 731.46 609C728.36 559 729.04 443.74 729.04 443.74H677.3Z" fill="#9DE5E7"/>
<path id="Vector_38" d="M712.36 787.68C712.24 787.68 714.92 798.02 714.92 798.02H745.2L744.98 788.8L712.36 787.68Z" fill="#263238"/>
<path id="Vector_39" d="M671.694 261.398C671.77 260.153 671.171 259.102 670.355 259.052C669.539 259.002 668.816 259.971 668.739 261.217C668.663 262.462 669.262 263.513 670.078 263.563C670.894 263.613 671.617 262.644 671.694 261.398Z" fill="#263238"/>
<path id="Vector_40" d="M671.08 263.56C669.458 267.373 667.332 270.951 664.76 274.2C665.6 274.81 666.565 275.227 667.585 275.421C668.605 275.614 669.655 275.58 670.66 275.32L671.08 263.56Z" fill="#E7B29D"/>
<path id="Vector_41" d="M676.36 254.4C676.205 254.4 676.053 254.359 675.92 254.28C675.204 253.717 674.363 253.335 673.468 253.168C672.573 253.001 671.651 253.053 670.78 253.32C670.691 253.355 670.595 253.372 670.5 253.37C670.404 253.368 670.309 253.347 670.222 253.308C670.134 253.269 670.055 253.212 669.99 253.142C669.924 253.072 669.873 252.99 669.84 252.9C669.808 252.808 669.795 252.711 669.801 252.614C669.807 252.517 669.833 252.422 669.875 252.335C669.918 252.247 669.978 252.169 670.05 252.105C670.123 252.041 670.208 251.991 670.3 251.96C671.396 251.603 672.562 251.519 673.698 251.714C674.834 251.909 675.906 252.378 676.82 253.08C676.971 253.199 677.07 253.371 677.096 253.562C677.123 253.752 677.074 253.945 676.96 254.1C676.89 254.193 676.799 254.268 676.695 254.32C676.591 254.372 676.476 254.399 676.36 254.4V254.4Z" fill="#263238"/>
<path id="Vector_42" d="M710.6 275.04C708.12 285.8 705.32 305.5 712.6 312.66C712.6 312.66 709.28 323.56 689.3 323.56C667.3 323.56 679.2 312.66 679.2 312.66C691.2 309.8 691.3 300.92 689.5 292.56L710.6 275.04Z" fill="#E7B29D"/>
<path id="Vector_43" d="M720.34 317.7C722.5 313.32 724.88 308.28 720.34 306.72C715.38 304.98 687.96 303.22 678.34 306.46C675.77 307.115 673.566 308.764 672.212 311.045C670.858 313.325 670.465 316.05 671.12 318.62L720.34 317.7Z" fill="#9DE5E7"/>
<path id="Vector_44" d="M741.38 316.88C754.04 322.72 760.48 367 760.48 367L734.98 375C730.425 363.284 726.728 351.253 723.92 339C720 320.52 728.42 310.92 741.38 316.88Z" fill="#263238"/>
<path id="Vector_45" d="M584.66 385.78L572.9 375.66L562.32 391.06C562.32 391.06 571.82 398.68 582.32 395.56L584.66 385.78Z" fill="#E7B29D"/>
<path id="Vector_46" d="M557.4 370.76L555.78 385.98L562.32 391.06L572.9 375.66L557.4 370.76Z" fill="#E7B29D"/>
<path id="Vector_47" d="M713.3 258.66C711.82 273.94 711.72 282.94 703.72 290.78C701.143 293.332 697.921 295.136 694.398 295.998C690.875 296.86 687.184 296.747 683.72 295.673C680.256 294.598 677.149 292.602 674.733 289.898C672.316 287.193 670.68 283.883 670 280.32C667.2 266.6 670 243.92 685.26 237.84C688.508 236.439 692.068 235.917 695.582 236.326C699.096 236.735 702.44 238.06 705.28 240.169C708.121 242.278 710.357 245.096 711.764 248.341C713.172 251.587 713.701 255.145 713.3 258.66V258.66Z" fill="#E7B29D"/>
<path id="Vector_48" d="M682 263.56C680.66 253 680.88 249 686.52 246.66C680.66 245.5 675.58 245.34 673.16 241.92C670.74 238.5 670.16 229.76 681.92 225.76C680.84 227.76 684.26 231.92 695.08 228.16C705.9 224.4 721.66 224 723.08 235C728.8 233 738.38 250.66 727.08 263.56C717.66 274.36 711.38 281.82 709.52 287.56C709.433 287.829 709.29 288.076 709.1 288.286C708.911 288.495 708.679 288.662 708.42 288.776C708.161 288.889 707.881 288.946 707.598 288.944C707.316 288.941 707.037 288.878 706.78 288.76C702.88 286.94 695.9 288.5 692.78 289.34C692.341 289.454 691.876 289.415 691.461 289.23C691.047 289.044 690.708 288.724 690.5 288.32C688.48 284.16 683.02 272.28 682 263.56Z" fill="#263238"/>
<path id="Vector_49" d="M720.96 236.34C720.96 236.34 725.6 229.8 734.5 234.66C729.924 234.447 725.345 235.015 720.96 236.34Z" fill="#263238"/>
<path id="Vector_50" d="M721.72 237.74C721.72 237.74 728.18 233.74 723.14 226.2C723.449 230.103 722.966 234.028 721.72 237.74Z" fill="#263238"/>
<path id="Vector_51" d="M689.48 264C688.778 267.781 686.903 271.245 684.12 273.9C680.42 277.4 677.22 274.92 677.12 270.42C677.02 266.42 678.82 259.66 683.12 257.86C687.42 256.06 690.24 259.48 689.48 264Z" fill="#E7B29D"/>
<path id="Vector_52" opacity="0.3" d="M679.36 506.24C680.8 539.8 683.06 578.76 686.34 601.02C687.6 609.5 689.44 621.38 691.64 635.16C700.48 586.92 705.76 524.76 679.36 506.24Z" fill="black"/>
<path id="Vector_53" d="M668.34 818.22C666.46 818.22 664.64 817.96 664.06 817.12C663.909 816.895 663.828 816.631 663.828 816.36C663.828 816.089 663.909 815.825 664.06 815.6C664.328 815.198 664.733 814.907 665.2 814.78C667.66 814.12 672.7 817.04 672.92 817.18C672.982 817.214 673.03 817.269 673.056 817.334C673.081 817.4 673.083 817.473 673.06 817.54C673.046 817.609 673.012 817.672 672.962 817.722C672.912 817.772 672.849 817.806 672.78 817.82C671.314 818.076 669.829 818.21 668.34 818.22ZM666.12 815.38C665.895 815.347 665.665 815.347 665.44 815.38C665.297 815.408 665.16 815.464 665.04 815.547C664.919 815.63 664.817 815.736 664.74 815.86C664.48 816.3 664.56 816.52 664.64 816.64C665.3 817.58 669 817.6 671.76 817.22C670.019 816.243 668.102 815.617 666.12 815.38V815.38Z" fill="#9DE5E7"/>
<path id="Vector_54" d="M672.8 817.82H672.66C670.92 817.02 667.5 813.82 667.84 812.18C667.84 811.78 668.2 811.3 669.16 811.2C669.517 811.155 669.879 811.185 670.223 811.289C670.568 811.392 670.887 811.566 671.16 811.8C672.98 813.34 673.16 817.3 673.16 817.46C673.159 817.522 673.143 817.583 673.116 817.638C673.088 817.693 673.049 817.742 673 817.78C672.938 817.811 672.869 817.825 672.8 817.82ZM669.42 811.82H669.22C668.58 811.82 668.54 812.12 668.52 812.2C668.32 813.2 670.62 815.7 672.4 816.78C672.29 815.125 671.667 813.546 670.62 812.26C670.28 811.989 669.855 811.847 669.42 811.86V811.82Z" fill="#9DE5E7"/>
<path id="Vector_55" d="M688.96 817.48H674.28L674 783.44H688.7L688.96 817.48Z" fill="#E7B29D"/>
<path id="Vector_56" d="M674.42 815.78H690.42C690.706 815.776 690.985 815.875 691.205 816.058C691.425 816.241 691.572 816.498 691.62 816.78L694.08 829.84C694.136 830.162 694.12 830.492 694.034 830.807C693.948 831.121 693.793 831.414 693.581 831.662C693.369 831.91 693.105 832.109 692.807 832.243C692.51 832.378 692.186 832.445 691.86 832.44C686.08 832.44 677.72 832.02 670.46 832.02C661.94 832.02 654.58 832.48 644.6 832.48C638.6 832.48 637.12 826.38 639.66 825.82C651.24 823.32 660.64 823.04 670.78 816.92C671.868 816.217 673.126 815.823 674.42 815.78Z" fill="#263238"/>
<path id="Vector_57" opacity="0.2" d="M674.02 783.46L674.14 801H688.84L688.72 783.46H674.02Z" fill="black"/>
<path id="Vector_58" d="M651.08 443.74C651.08 443.74 645.08 553.6 645.2 598.4C645.2 645 668.8 797.6 668.8 797.6H693.68C693.68 797.6 687.2 647.72 690 602C692.98 552 707.42 443.78 707.42 443.78L651.08 443.74Z" fill="#9DE5E7"/>
<path id="Vector_59" d="M664.36 787.68C664.24 787.68 665.38 798.02 665.38 798.02H695.66L696.82 788.8L664.36 787.68Z" fill="#263238"/>
<path id="Vector_60" d="M656.44 316.74C656.44 316.74 631.4 380 642.3 489.34H733.74C734.7 477.34 725.14 372.82 738.78 315.98C730.128 314.305 721.376 313.196 712.58 312.66C701.456 312.02 690.304 312.02 679.18 312.66C671.506 313.432 663.904 314.796 656.44 316.74V316.74Z" fill="#263238"/>
<path id="Vector_61" opacity="0.2" d="M643.5 374C642.14 384 641.02 395.42 640.3 408C658.06 391.68 664.14 351.02 664.14 351.02L643.5 374Z" fill="black"/>
<path id="Vector_62" d="M665.86 346.86C662.26 356.22 658.62 365.24 654.62 374.3C650.62 383.36 646.48 392.3 641.82 401.26L640 404.6L639.08 406.28C638.7 406.96 638.74 407 637.7 408.74C635.907 411.56 633.421 413.874 630.48 415.46C628.048 416.739 625.393 417.54 622.66 417.82C618.903 418.164 615.114 417.86 611.46 416.92C608.571 416.205 605.737 415.282 602.98 414.16C598.032 412.111 593.239 409.705 588.64 406.96C586.38 405.66 584.22 404.26 582.08 402.96C579.94 401.66 578 400 575.7 398.4L586.5 381.84C594.25 386.111 602.386 389.64 610.8 392.38C612.586 392.932 614.411 393.346 616.26 393.62C617.315 393.845 618.405 393.845 619.46 393.62C619.58 393.62 619.2 393.5 618.54 393.84C617.736 394.25 617.049 394.855 616.54 395.6C616.12 396.3 616.66 395.26 616.84 394.86L617.56 393.28L619 390.14C622.8 381.66 626.32 372.88 629.74 364.14C633.16 355.4 636.48 346.28 639.54 337.46L665.86 346.86Z" fill="#263238"/>
<path id="Vector_63" d="M675.8 323.38C680.48 336.46 647.36 389.12 647.36 389.12L627.72 369.66C627.72 369.66 632.74 353.12 639.36 333.2C645.88 313.62 671.34 310.88 675.8 323.38Z" fill="#263238"/>
</g>
</g>
</svg>
