<svg width="1000" height="1000" viewBox="0 0 1000 1000" fill="none" xmlns="http://www.w3.org/2000/svg">
<g id="Visionary technology-rafiki 1">
<g id="background">
<path id="Vector" d="M426 604.9C474.48 603.98 521.2 630.24 568.36 638.52C615.52 646.8 666.5 647.88 713.08 637.42C827.08 611.84 902.04 526.28 877.98 432.7C858.84 358.28 919.98 260.88 861.1 188.22C801.48 114.64 727.8 97.78 639.22 91.66C557.36 86 415.52 79.08 366 156.12C309.42 244.12 444.86 346.12 335.62 401.36C248.34 445.36 153.72 522.68 204.22 623.8C257.7 731.04 346 606.4 426 604.9Z" fill="#9DE5E7"/>
<path id="Vector_2" opacity="0.9" d="M426 604.9C474.48 603.98 521.2 630.24 568.36 638.52C615.52 646.8 666.5 647.88 713.08 637.42C827.08 611.84 902.04 526.28 877.98 432.7C858.84 358.28 919.98 260.88 861.1 188.22C801.48 114.64 727.8 97.78 639.22 91.66C557.36 86 415.52 79.08 366 156.12C309.42 244.12 444.86 346.12 335.62 401.36C248.34 445.36 153.72 522.68 204.22 623.8C257.7 731.04 346 606.4 426 604.9Z" fill="white"/>
</g>
<g id="shadow">
<path id="freepik--path--inject-31" d="M500 855.12C714.165 855.12 887.78 844.984 887.78 832.48C887.78 819.976 714.165 809.84 500 809.84C285.835 809.84 112.22 819.976 112.22 832.48C112.22 844.984 285.835 855.12 500 855.12Z" fill="#F5F5F5"/>
</g>
<g id="lines">
<path id="Vector_3" opacity="0.1" d="M821.162 477.026C806.542 526.726 750.782 564.806 700.342 553.026C639.182 538.646 606.942 486.526 617.782 435.866C628.622 385.206 685.082 411.226 735.782 400.366C800.822 386.346 835.702 427.306 821.162 477.026Z" fill="#9DE5E7"/>
<g id="topborder">
<path id="Vector_4" d="M782.182 277.766C782.089 277.785 781.994 277.785 781.902 277.766C781.647 277.692 781.433 277.519 781.305 277.287C781.178 277.054 781.148 276.781 781.222 276.526C799.122 216.906 786.262 164.526 746.822 136.146C710.662 110.246 661.342 110.646 624.082 137.186C518.662 212.246 438.082 226.786 354.562 185.846C354.444 185.788 354.338 185.708 354.251 185.609C354.164 185.511 354.097 185.396 354.054 185.271C354.012 185.147 353.994 185.015 354.002 184.884C354.01 184.753 354.044 184.624 354.102 184.506C354.16 184.388 354.24 184.282 354.339 184.195C354.437 184.108 354.552 184.041 354.677 183.999C354.801 183.956 354.933 183.938 355.064 183.946C355.195 183.954 355.324 183.988 355.442 184.046C438.202 224.626 518.182 210.046 622.922 135.546C660.922 108.526 711.142 108.126 747.982 134.526C788.162 163.326 801.302 216.526 783.142 277.106C783.071 277.303 782.94 277.472 782.768 277.59C782.596 277.709 782.391 277.77 782.182 277.766Z" fill="#9DE5E7"/>
<path id="Vector_5" d="M530.082 191.426C530.252 192.784 530.014 194.161 529.399 195.384C528.784 196.606 527.82 197.618 526.628 198.291C525.437 198.963 524.073 199.267 522.708 199.162C521.344 199.058 520.042 198.55 518.967 197.704C517.892 196.857 517.093 195.71 516.671 194.409C516.249 193.107 516.224 191.709 516.599 190.393C516.974 189.077 517.731 187.902 518.775 187.018C519.819 186.134 521.102 185.579 522.462 185.426C524.266 185.223 526.077 185.738 527.504 186.861C528.93 187.985 529.856 189.625 530.082 191.426Z" fill="white"/>
<path id="Vector_6" d="M523.222 200.066C521.701 200.064 520.214 199.623 518.938 198.794C517.663 197.966 516.655 196.786 516.035 195.398C515.416 194.009 515.211 192.471 515.446 190.969C515.681 189.466 516.345 188.064 517.359 186.931C518.373 185.798 519.694 184.982 521.161 184.583C522.628 184.183 524.179 184.217 525.628 184.679C527.076 185.142 528.36 186.014 529.324 187.189C530.289 188.365 530.892 189.795 531.062 191.306C531.266 193.38 530.653 195.451 529.353 197.08C528.053 198.708 526.169 199.765 524.102 200.026C523.81 200.059 523.516 200.072 523.222 200.066ZM523.222 186.286H522.582C521.427 186.416 520.336 186.885 519.447 187.634C518.558 188.383 517.912 189.379 517.589 190.496C517.266 191.612 517.281 192.8 517.632 193.908C517.984 195.016 518.656 195.995 519.564 196.721C520.472 197.447 521.574 197.888 522.732 197.988C523.89 198.087 525.052 197.842 526.071 197.282C527.089 196.721 527.919 195.872 528.455 194.84C528.991 193.809 529.209 192.641 529.082 191.486C528.89 190.061 528.193 188.752 527.118 187.798C526.042 186.843 524.66 186.307 523.222 186.286Z" fill="#9DE5E7"/>
</g>
<g id="rightborder">
<path id="Vector_7" d="M840.102 467.406H839.762C839.513 467.316 839.309 467.13 839.197 466.89C839.084 466.65 839.072 466.375 839.162 466.126C860.622 407.146 830.002 383.586 800.382 360.786C772.382 339.186 743.282 316.786 759.822 264.906C759.86 264.78 759.924 264.663 760.009 264.562C760.093 264.46 760.198 264.378 760.315 264.318C760.433 264.258 760.562 264.223 760.693 264.214C760.825 264.205 760.957 264.223 761.082 264.266C761.206 264.305 761.321 264.368 761.42 264.451C761.52 264.534 761.601 264.637 761.661 264.752C761.721 264.868 761.757 264.994 761.767 265.123C761.777 265.252 761.762 265.383 761.722 265.506C745.702 316.066 772.802 336.906 801.702 359.146C831.882 382.366 863.102 406.386 841.142 466.746C841.073 466.961 840.932 467.144 840.742 467.265C840.552 467.385 840.325 467.435 840.102 467.406Z" fill="#9DE5E7"/>
<path id="Vector_8" d="M767.702 264.386C767.872 265.745 767.634 267.123 767.019 268.346C766.404 269.569 765.438 270.582 764.246 271.254C763.053 271.927 761.688 272.23 760.322 272.124C758.957 272.018 757.655 271.509 756.58 270.66C755.505 269.812 754.707 268.663 754.288 267.36C753.868 266.057 753.845 264.658 754.223 263.342C754.601 262.026 755.361 260.852 756.408 259.969C757.455 259.087 758.741 258.536 760.102 258.386C761.903 258.188 763.709 258.706 765.131 259.829C766.553 260.952 767.476 262.588 767.702 264.386Z" fill="white"/>
<path id="Vector_9" d="M760.762 273.046C759.492 273.059 758.237 272.765 757.105 272.19C755.972 271.615 754.995 270.775 754.256 269.742C753.517 268.709 753.039 267.513 752.86 266.255C752.682 264.998 752.81 263.715 753.232 262.518C753.655 261.32 754.36 260.242 755.288 259.375C756.216 258.507 757.34 257.877 758.563 257.536C759.787 257.195 761.075 257.155 762.317 257.418C763.56 257.68 764.721 258.239 765.702 259.046C767.331 260.362 768.38 262.265 768.622 264.346C768.841 266.425 768.238 268.506 766.942 270.146C765.624 271.717 763.743 272.709 761.702 272.906C761.392 272.976 761.078 273.022 760.762 273.046ZM760.762 259.266C760.542 259.246 760.321 259.246 760.102 259.266C759.324 259.338 758.569 259.567 757.881 259.938C757.194 260.309 756.589 260.815 756.102 261.426C755.616 262.031 755.254 262.725 755.038 263.47C754.822 264.215 754.755 264.995 754.842 265.766C755.042 267.305 755.831 268.707 757.043 269.677C758.255 270.646 759.796 271.108 761.342 270.966C762.91 270.793 764.347 270.01 765.342 268.786C765.825 268.185 766.184 267.493 766.397 266.751C766.61 266.009 766.673 265.232 766.582 264.466C766.433 263.023 765.752 261.688 764.673 260.719C763.593 259.751 762.192 259.218 760.742 259.226L760.762 259.266Z" fill="#9DE5E7"/>
</g>
<g id="bottomborder">
<path id="Vector_10" d="M716.002 584.246C695.788 584.151 675.88 579.308 657.882 570.106C583.882 532.846 526.322 534.526 504.142 574.586C504.079 574.702 503.994 574.804 503.892 574.887C503.789 574.97 503.671 575.031 503.545 575.069C503.419 575.106 503.286 575.118 503.155 575.103C503.024 575.089 502.897 575.049 502.782 574.986C502.552 574.855 502.382 574.641 502.307 574.387C502.232 574.133 502.259 573.86 502.382 573.626C525.162 532.506 583.622 530.526 658.782 568.306C676.751 577.606 696.715 582.388 716.948 582.238C737.181 582.088 757.072 577.011 774.902 567.446C819.082 544.466 852.242 498.126 859.382 449.446C859.401 449.316 859.446 449.191 859.514 449.078C859.582 448.966 859.672 448.868 859.777 448.79C859.883 448.711 860.004 448.655 860.131 448.624C860.259 448.592 860.392 448.586 860.522 448.606C860.782 448.65 861.015 448.794 861.172 449.007C861.328 449.219 861.397 449.484 861.362 449.746C854.122 499.106 820.542 546.006 775.822 569.266C757.385 579.019 736.859 584.159 716.002 584.246Z" fill="#9DE5E7"/>
<path id="Vector_11" d="M836.402 520.906C836.568 522.259 836.328 523.632 835.712 524.848C835.096 526.065 834.133 527.071 832.945 527.74C831.756 528.408 830.396 528.708 829.036 528.602C827.677 528.495 826.38 527.988 825.31 527.143C824.239 526.298 823.444 525.154 823.026 523.856C822.607 522.559 822.583 521.166 822.957 519.855C823.331 518.543 824.087 517.373 825.127 516.492C826.168 515.611 827.447 515.059 828.802 514.906C830.603 514.708 832.409 515.226 833.831 516.349C835.253 517.472 836.176 519.108 836.402 520.906Z" fill="white"/>
<path id="Vector_12" d="M829.542 529.606C828.016 529.605 826.524 529.162 825.245 528.331C823.965 527.499 822.954 526.316 822.333 524.922C821.712 523.529 821.508 521.986 821.745 520.479C821.982 518.972 822.65 517.566 823.669 516.43C824.687 515.295 826.013 514.479 827.486 514.08C828.958 513.682 830.515 513.718 831.967 514.185C833.419 514.652 834.705 515.53 835.67 516.712C836.634 517.894 837.236 519.33 837.402 520.846C837.516 521.876 837.425 522.918 837.136 523.913C836.847 524.907 836.364 525.835 835.716 526.643C835.067 527.452 834.266 528.124 833.358 528.622C832.449 529.12 831.452 529.434 830.422 529.546C830.13 529.587 829.836 529.607 829.542 529.606ZM829.542 515.826C829.322 515.807 829.101 515.807 828.882 515.826C827.728 515.959 826.639 516.431 825.754 517.183C824.868 517.934 824.224 518.931 823.904 520.047C823.584 521.164 823.602 522.35 823.956 523.457C824.309 524.563 824.982 525.54 825.89 526.264C826.799 526.988 827.901 527.427 829.058 527.526C830.215 527.625 831.376 527.378 832.393 526.818C833.411 526.257 834.239 525.408 834.775 524.378C835.31 523.347 835.528 522.181 835.402 521.026C835.229 519.458 834.446 518.021 833.222 517.026C832.171 516.227 830.882 515.804 829.562 515.826H829.542Z" fill="#9DE5E7"/>
</g>
<g id="atom2">
<path id="Vector_13" d="M765.842 519.946C765.208 521.15 764.233 522.139 763.038 522.788C761.843 523.437 760.482 523.718 759.128 523.594C757.773 523.47 756.486 522.948 755.428 522.093C754.37 521.238 753.59 520.089 753.185 518.791C752.78 517.492 752.769 516.103 753.153 514.798C753.538 513.494 754.3 512.332 755.344 511.461C756.388 510.589 757.667 510.047 759.019 509.902C760.372 509.757 761.737 510.016 762.942 510.646C763.747 511.061 764.462 511.633 765.045 512.327C765.628 513.021 766.067 513.824 766.337 514.689C766.607 515.555 766.702 516.465 766.617 517.367C766.532 518.27 766.269 519.146 765.842 519.946Z" fill="white"/>
<path id="Vector_14" d="M759.702 524.646C758.427 524.642 757.173 524.333 756.042 523.746C754.208 522.753 752.835 521.082 752.215 519.091C751.594 517.1 751.776 514.945 752.722 513.086C753.711 511.263 755.377 509.901 757.361 509.296C759.346 508.691 761.488 508.89 763.327 509.852C765.165 510.813 766.551 512.458 767.187 514.433C767.822 516.408 767.655 518.553 766.722 520.406C766.043 521.68 765.032 522.747 763.796 523.494C762.561 524.24 761.146 524.639 759.702 524.646ZM759.702 510.866C758.66 510.866 757.636 511.142 756.736 511.667C755.836 512.192 755.092 512.947 754.58 513.854C754.067 514.761 753.805 515.788 753.82 516.83C753.835 517.872 754.126 518.891 754.664 519.783C755.203 520.675 755.968 521.409 756.883 521.908C757.798 522.407 758.828 522.654 759.87 522.624C760.911 522.593 761.926 522.287 762.81 521.736C763.694 521.184 764.416 520.408 764.902 519.486C765.613 518.092 765.752 516.476 765.289 514.982C764.825 513.487 763.797 512.233 762.422 511.486C761.573 511.082 760.641 510.884 759.702 510.906V510.866Z" fill="#9DE5E7"/>
<path id="Vector_15" d="M785.522 492.646C785.337 492.641 785.159 492.57 785.022 492.446L744.662 456.006C744.547 455.866 744.486 455.689 744.49 455.508C744.494 455.327 744.562 455.154 744.683 455.019C744.804 454.884 744.968 454.796 745.148 454.772C745.327 454.747 745.51 454.788 745.662 454.886L784.962 490.366L790.382 447.546C790.394 447.448 790.426 447.354 790.475 447.269C790.524 447.184 790.589 447.109 790.667 447.05C790.746 446.99 790.835 446.947 790.93 446.922C791.025 446.897 791.124 446.892 791.222 446.906C791.319 446.918 791.413 446.95 791.499 446.999C791.584 447.048 791.658 447.114 791.718 447.192C791.777 447.27 791.821 447.359 791.846 447.454C791.87 447.55 791.876 447.649 791.862 447.746L786.262 491.986C786.246 492.121 786.193 492.249 786.108 492.355C786.023 492.462 785.91 492.542 785.782 492.586C785.701 492.627 785.612 492.647 785.522 492.646Z" fill="#263238"/>
<path id="Vector_16" d="M759.702 517.506C759.6 517.505 759.5 517.484 759.407 517.442C759.314 517.401 759.231 517.341 759.162 517.266C759.024 517.124 758.947 516.934 758.947 516.736C758.947 516.538 759.024 516.348 759.162 516.206L784.942 491.346C785.084 491.208 785.274 491.131 785.472 491.131C785.67 491.131 785.86 491.208 786.002 491.346C786.073 491.415 786.129 491.497 786.167 491.588C786.206 491.679 786.225 491.777 786.225 491.876C786.225 491.975 786.206 492.073 786.167 492.164C786.129 492.255 786.073 492.337 786.002 492.406L760.222 517.266C760.156 517.34 760.076 517.399 759.987 517.44C759.897 517.481 759.8 517.504 759.702 517.506Z" fill="#263238"/>
<path id="Vector_17" d="M750.482 458.226C749.945 459.29 749.103 460.171 748.063 460.755C747.024 461.339 745.834 461.6 744.646 461.505C743.458 461.409 742.325 460.962 741.391 460.221C740.458 459.479 739.767 458.476 739.406 457.339C739.045 456.203 739.031 454.985 739.366 453.841C739.7 452.696 740.368 451.678 741.284 450.914C742.2 450.151 743.322 449.678 744.508 449.555C745.694 449.433 746.889 449.666 747.942 450.226C749.327 450.963 750.369 452.213 750.843 453.708C751.318 455.203 751.188 456.825 750.482 458.226Z" fill="#9DE5E7"/>
<path id="Vector_18" d="M794.882 449.606C794.494 450.35 793.895 450.962 793.159 451.365C792.424 451.767 791.585 451.943 790.75 451.87C789.915 451.796 789.12 451.476 788.466 450.951C787.812 450.426 787.329 449.719 787.078 448.919C786.826 448.119 786.817 447.262 787.052 446.457C787.287 445.652 787.756 444.935 788.398 444.396C789.041 443.858 789.829 443.522 790.663 443.431C791.496 443.34 792.338 443.498 793.082 443.886C793.576 444.143 794.014 444.495 794.372 444.922C794.729 445.349 794.999 445.842 795.167 446.373C795.334 446.904 795.395 447.463 795.346 448.018C795.297 448.573 795.139 449.112 794.882 449.606Z" fill="#263238"/>
</g>
<g id="atom1">
<path id="Vector_19" d="M537.701 400.258C537.733 398.898 538.167 397.578 538.95 396.465C539.732 395.352 540.827 394.495 542.095 394.004C543.364 393.513 544.75 393.409 546.078 393.706C547.406 394.002 548.616 394.686 549.556 395.67C550.495 396.654 551.122 397.895 551.356 399.235C551.59 400.575 551.422 401.955 550.873 403.199C550.323 404.444 549.417 405.498 548.268 406.227C547.12 406.957 545.781 407.33 544.421 407.298C543.516 407.28 542.625 407.083 541.797 406.719C540.969 406.355 540.221 405.831 539.596 405.176C538.972 404.522 538.483 403.751 538.157 402.907C537.832 402.063 537.677 401.163 537.701 400.258Z" fill="white"/>
<path id="Vector_20" d="M544.581 408.378H544.381C542.303 408.331 540.329 407.463 538.889 405.964C537.45 404.464 536.663 402.456 536.701 400.378C536.748 398.299 537.616 396.322 539.114 394.88C540.613 393.438 542.621 392.646 544.701 392.678C546.726 392.803 548.625 393.701 550.005 395.188C551.386 396.675 552.141 398.635 552.116 400.664C552.09 402.692 551.285 404.633 549.867 406.084C548.45 407.535 546.528 408.385 544.501 408.458L544.581 408.378ZM544.581 394.598C543.045 394.598 541.571 395.198 540.472 396.271C539.373 397.343 538.737 398.803 538.701 400.338C538.669 401.895 539.255 403.4 540.331 404.525C541.407 405.649 542.885 406.302 544.441 406.338C545.214 406.369 545.986 406.241 546.708 405.962C547.43 405.684 548.088 405.26 548.641 404.718C549.489 403.911 550.077 402.869 550.33 401.726C550.582 400.582 550.488 399.39 550.058 398.3C549.628 397.211 548.883 396.275 547.918 395.612C546.953 394.949 545.812 394.589 544.641 394.578L544.581 394.598Z" fill="#9DE5E7"/>
<path id="Vector_21" d="M519.161 400.378C518.975 400.38 518.796 400.314 518.656 400.192C518.516 400.071 518.425 399.902 518.401 399.718L516.101 378.918C516.081 378.819 516.081 378.717 516.101 378.618L524.101 350.818C524.168 350.646 524.298 350.504 524.465 350.423C524.632 350.341 524.823 350.326 525.001 350.378C525.194 350.434 525.358 350.565 525.455 350.741C525.553 350.917 525.576 351.125 525.521 351.318L517.641 378.978L519.941 399.618C519.958 399.816 519.9 400.013 519.777 400.169C519.655 400.325 519.477 400.429 519.281 400.458L519.161 400.378Z" fill="#263238"/>
<path id="Vector_22" d="M544.581 401.178C544.415 401.174 544.254 401.118 544.121 401.018L516.381 379.398C516.226 379.273 516.126 379.091 516.104 378.893C516.081 378.695 516.138 378.495 516.261 378.338C516.321 378.262 516.396 378.199 516.481 378.151C516.566 378.104 516.659 378.074 516.756 378.063C516.853 378.052 516.95 378.06 517.044 378.086C517.137 378.113 517.225 378.158 517.301 378.218L545.001 399.838C545.153 399.961 545.253 400.137 545.279 400.33C545.305 400.524 545.256 400.72 545.141 400.878C545.075 400.966 544.99 401.038 544.894 401.09C544.797 401.142 544.69 401.172 544.581 401.178Z" fill="#263238"/>
<path id="Vector_23" d="M518.761 350.858C518.789 349.672 519.168 348.521 519.85 347.55C520.532 346.579 521.487 345.833 522.594 345.404C523.7 344.976 524.909 344.886 526.067 345.144C527.225 345.403 528.28 345.999 529.099 346.857C529.919 347.716 530.465 348.798 530.669 349.967C530.874 351.135 530.727 352.339 530.248 353.424C529.768 354.509 528.978 355.428 527.976 356.065C526.975 356.701 525.807 357.026 524.621 356.998C523.833 356.98 523.056 356.807 522.335 356.489C521.614 356.17 520.963 355.713 520.419 355.143C519.874 354.572 519.448 353.9 519.163 353.165C518.879 352.43 518.742 351.646 518.761 350.858Z" fill="#9DE5E7"/>
<path id="Vector_24" d="M515.001 399.498C515.017 398.654 515.284 397.834 515.767 397.142C516.25 396.45 516.928 395.917 517.714 395.61C518.501 395.304 519.361 395.238 520.185 395.422C521.009 395.605 521.76 396.029 522.342 396.64C522.925 397.25 523.313 398.021 523.457 398.852C523.602 399.684 523.495 400.54 523.152 401.311C522.809 402.083 522.245 402.735 521.531 403.184C520.816 403.634 519.985 403.862 519.141 403.838C518.018 403.807 516.953 403.333 516.178 402.52C515.402 401.708 514.979 400.622 515.001 399.498Z" fill="#263238"/>
</g>
<path id="colorline" d="M731.042 337.066L746.082 371.066C746.283 371.527 746.391 372.022 746.399 372.525C746.407 373.027 746.316 373.527 746.13 373.993C745.944 374.46 745.667 374.886 745.315 375.245C744.964 375.604 744.545 375.89 744.082 376.086C743.15 376.481 742.1 376.493 741.16 376.118C740.22 375.744 739.466 375.014 739.062 374.086L724.002 340.086C723.606 339.155 723.595 338.105 723.969 337.165C724.344 336.225 725.074 335.471 726.002 335.066C726.935 334.665 727.99 334.65 728.935 335.024C729.88 335.399 730.637 336.134 731.042 337.066Z" fill="#9DE5E7"/>
<path id="blackline" d="M632.802 533.226L684.182 529.626C684.794 529.588 685.397 529.793 685.858 530.198C686.319 530.603 686.601 531.174 686.642 531.786C686.68 532.395 686.477 532.995 686.077 533.455C685.676 533.916 685.11 534.2 684.502 534.246L633.122 537.846C632.818 537.868 632.513 537.829 632.224 537.732C631.936 537.635 631.669 537.481 631.44 537.28C631.211 537.079 631.025 536.835 630.891 536.561C630.758 536.288 630.68 535.99 630.662 535.686C630.64 535.384 630.678 535.08 630.774 534.793C630.87 534.506 631.022 534.24 631.221 534.011C631.419 533.783 631.661 533.596 631.933 533.461C632.204 533.326 632.499 533.246 632.802 533.226Z" fill="#263238"/>
<g id="diatom">
<path id="Vector_25" d="M633.545 325.523C633.383 325.521 633.226 325.468 633.097 325.371C632.967 325.274 632.872 325.138 632.825 324.983C632.776 324.789 632.805 324.584 632.907 324.412C633.008 324.24 633.172 324.114 633.365 324.063L667.765 314.803C667.952 314.769 668.144 314.807 668.305 314.908C668.465 315.009 668.582 315.167 668.632 315.35C668.682 315.533 668.662 315.728 668.576 315.897C668.489 316.066 668.343 316.196 668.165 316.263L633.685 325.503L633.545 325.523Z" fill="#263238"/>
<path id="Vector_26" d="M665.685 316.783C665.44 316.346 665.329 315.846 665.368 315.346C665.406 314.846 665.591 314.369 665.901 313.974C666.21 313.579 666.629 313.285 667.105 313.128C667.581 312.971 668.093 312.958 668.576 313.091C669.059 313.225 669.492 313.498 669.82 313.877C670.148 314.256 670.357 314.723 670.42 315.221C670.483 315.718 670.398 316.223 670.174 316.672C669.951 317.12 669.6 317.493 669.165 317.743C668.875 317.913 668.553 318.023 668.22 318.066C667.886 318.11 667.547 318.086 667.223 317.997C666.898 317.907 666.595 317.754 666.331 317.545C666.067 317.337 665.847 317.078 665.685 316.783Z" fill="#9DE5E7"/>
<path id="Vector_27" d="M631.325 326.043C630.995 325.451 630.912 324.752 631.096 324.1C631.28 323.448 631.714 322.895 632.305 322.563C632.595 322.396 632.915 322.289 633.246 322.247C633.578 322.205 633.914 322.229 634.236 322.318C634.558 322.408 634.859 322.56 635.122 322.767C635.384 322.974 635.603 323.231 635.765 323.523C635.962 323.815 636.096 324.145 636.159 324.492C636.223 324.839 636.214 325.195 636.133 325.538C636.052 325.881 635.901 326.204 635.69 326.486C635.478 326.768 635.211 327.004 634.905 327.178C634.598 327.352 634.259 327.461 633.908 327.497C633.558 327.534 633.203 327.498 632.867 327.392C632.531 327.285 632.221 327.11 631.955 326.878C631.69 326.646 631.475 326.362 631.325 326.043Z" fill="#9DE5E7"/>
</g>
</g>
<g id="laptop">
<path id="Vector_28" d="M674.78 422.76C675.105 421.959 675.174 421.077 674.977 420.235C674.78 419.393 674.327 418.633 673.68 418.06L613.24 369.68C612.965 369.436 612.634 369.264 612.277 369.18C611.919 369.095 611.546 369.101 611.192 369.196C610.837 369.291 610.511 369.473 610.244 369.725C609.977 369.977 609.776 370.291 609.66 370.64L590.4 414.64L552 443.5C551.683 443.69 551.418 443.956 551.229 444.274C551.041 444.592 550.935 444.952 550.921 445.322C550.907 445.692 550.985 446.059 551.149 446.39C551.313 446.722 551.558 447.007 551.86 447.22L612.3 495.6C613.001 496.099 613.84 496.367 614.7 496.367C615.56 496.367 616.399 496.099 617.1 495.6L655.6 466.68L674.78 422.76Z" fill="#9DE5E7"/>
<path id="Vector_29" d="M653.66 465.2L588.54 413.08L607.82 369.08C607.933 368.732 608.131 368.417 608.397 368.165C608.662 367.912 608.986 367.73 609.34 367.635C609.693 367.54 610.065 367.534 610.421 367.619C610.778 367.703 611.107 367.876 611.38 368.12L671.84 416.5C672.483 417.076 672.933 417.837 673.126 418.679C673.32 419.52 673.247 420.401 672.92 421.2L653.66 465.2Z" fill="#9DE5E7"/>
<path id="Vector_30" d="M652.16 459.46C652.048 459.459 651.941 459.417 651.86 459.34L593.42 412.58C593.231 412.385 593.1 412.142 593.044 411.876C592.987 411.611 593.007 411.335 593.1 411.08L610 372.38C610.033 372.309 610.08 372.246 610.138 372.194C610.197 372.142 610.266 372.104 610.34 372.08C610.416 372.065 610.495 372.066 610.571 372.084C610.646 372.101 610.718 372.134 610.78 372.18L669.2 418.94C669.396 419.13 669.531 419.374 669.588 419.641C669.645 419.908 669.621 420.186 669.52 420.44L652.54 459.16C652.51 459.23 652.463 459.293 652.404 459.341C652.345 459.39 652.275 459.424 652.2 459.44L652.16 459.46ZM594.16 411.82L652 458.16L668.7 420C668.729 419.888 668.729 419.771 668.7 419.66L610.8 373.34L594 411.48C593.962 411.59 593.962 411.71 594 411.82H594.16Z" fill="white"/>
<path id="Vector_31" d="M653.66 465.2L588.54 413.08L550 442C549.687 442.193 549.426 442.46 549.24 442.778C549.055 443.096 548.951 443.455 548.937 443.823C548.923 444.19 549 444.556 549.161 444.887C549.322 445.218 549.562 445.504 549.86 445.72L610.32 494.1C611.02 494.601 611.859 494.871 612.72 494.871C613.581 494.871 614.42 494.601 615.12 494.1L653.66 465.2Z" fill="#9DE5E7"/>
<path id="Vector_32" opacity="0.3" d="M570 434L585.62 422.28C586.374 421.735 587.28 421.442 588.21 421.442C589.14 421.442 590.046 421.735 590.8 422.28L641.8 463.08C642.117 463.315 642.372 463.624 642.543 463.98C642.714 464.336 642.795 464.728 642.779 465.122C642.763 465.517 642.651 465.901 642.453 466.243C642.254 466.584 641.975 466.871 641.64 467.08L626.04 478.8C625.281 479.341 624.372 479.632 623.44 479.632C622.508 479.632 621.599 479.341 620.84 478.8L569.86 438C569.55 437.761 569.301 437.452 569.134 437.098C568.967 436.744 568.888 436.355 568.901 435.964C568.915 435.573 569.022 435.191 569.213 434.849C569.404 434.507 569.674 434.216 570 434Z" fill="white"/>
<path id="Vector_33" opacity="0.3" d="M572.8 457.42L580.68 451.42C581.021 451.174 581.43 451.042 581.85 451.042C582.27 451.042 582.679 451.174 583.02 451.42L604 468.28C604.148 468.381 604.27 468.516 604.354 468.675C604.438 468.834 604.482 469.01 604.482 469.19C604.482 469.369 604.438 469.546 604.354 469.705C604.27 469.863 604.148 469.999 604 470.1L596 476C595.659 476.246 595.25 476.378 594.83 476.378C594.41 476.378 594.001 476.246 593.66 476L572.72 459.24C572.576 459.133 572.46 458.992 572.383 458.829C572.306 458.667 572.269 458.488 572.277 458.309C572.285 458.129 572.337 457.954 572.428 457.799C572.519 457.644 572.647 457.514 572.8 457.42Z" fill="white"/>
</g>
<g id="character">
<path id="ring-bg" opacity="0.3" d="M439.85 566.476C487.039 543.041 487.975 448.898 441.94 356.201C395.905 263.505 320.331 207.357 273.142 230.792C225.953 254.228 225.018 348.371 271.053 441.067C317.088 533.764 392.661 589.911 439.85 566.476Z" fill="#9DE5E7"/>
<path id="Vector_34" d="M315.44 817.32L330.24 817.08L333.64 782.76L318.84 782.98L315.44 817.32Z" fill="#E7B29D"/>
<path id="Vector_35" d="M216 790.3L230.1 794.78L246 763.88L231.9 759.4L216 790.3Z" fill="#E7B29D"/>
<path id="Vector_36" opacity="0.2" d="M333.64 782.76L331.88 800.46L317.08 800.7L318.84 783L333.64 782.76Z" fill="black"/>
<path id="Vector_37" opacity="0.2" d="M231.88 759.4L246 763.88L237.8 779.8L223.68 775.34L231.88 759.4Z" fill="black"/>
<path id="Vector_38" d="M337.38 796.96L312.32 797.34C312.32 797.34 322.32 700 325.46 654C326.285 635.649 326.071 617.267 324.82 598.94C323.32 572.1 322.36 561.36 320.34 527.44C318.9 503.24 317.14 487.58 317.14 487.58L369 491.84C369 491.84 371 609.26 365.16 654.04C359.04 700.6 337.38 796.96 337.38 796.96Z" fill="#9DE5E7"/>
<path id="Vector_39" opacity="0.2" d="M331.4 520.1C337.9 544.26 331.6 598.32 325.5 613.02C325.32 608.42 325.08 603.72 324.82 599.02C323.32 572.18 322.34 561.44 320.32 527.52C320.32 526.84 320.32 526.18 320.32 525.52C323.674 523.089 327.422 521.256 331.4 520.1Z" fill="black"/>
<path id="Vector_40" d="M341.02 489.54C341.02 489.54 317.02 610.18 305.02 651.84C291.9 697.48 245.36 778.62 245.36 778.62L219.52 770.44C219.52 770.44 249.28 701.74 260.26 656.78C272.78 605.54 290.1 485.36 290.1 485.36L341.02 489.54Z" fill="#9DE5E7"/>
<path id="Vector_41" d="M233.1 793.8L216.78 786.12C216.513 785.994 216.211 785.964 215.923 786.033C215.636 786.102 215.381 786.267 215.2 786.5L206.98 797.16C206.779 797.421 206.64 797.725 206.573 798.048C206.506 798.37 206.514 798.704 206.595 799.024C206.676 799.343 206.828 799.64 207.04 799.893C207.252 800.145 207.519 800.346 207.82 800.48C213.12 802.84 217.08 804.34 223.7 807.44C227.7 809.44 237.22 814.2 242.84 816.84C248.46 819.48 251.72 814.4 249.74 812.68C240.92 805.04 236.8 800.16 234.9 795.64C234.549 794.825 233.907 794.169 233.1 793.8Z" fill="#263238"/>
<path id="Vector_42" d="M330.12 815.36L313.96 815.62C313.665 815.624 313.381 815.73 313.155 815.919C312.929 816.109 312.775 816.37 312.72 816.66L310 829.84C309.93 830.158 309.933 830.489 310.01 830.806C310.087 831.123 310.235 831.418 310.444 831.669C310.652 831.919 310.915 832.119 311.212 832.253C311.51 832.387 311.834 832.451 312.16 832.44C318 832.26 326.4 831.78 333.74 831.66C342.3 831.54 343.28 831.88 353.32 831.66C359.32 831.66 360.98 825.4 358.44 824.88C346.82 822.54 343.8 822.42 333.7 816.4C332.622 815.737 331.385 815.378 330.12 815.36Z" fill="#263238"/>
<path id="Vector_43" d="M303.48 354.86C322.071 353.498 340.755 354.169 359.2 356.86C364.691 357.734 369.721 360.449 373.465 364.559C377.208 368.67 379.442 373.932 379.8 379.48C381.06 398.98 380.62 437.3 371.44 509.18C360.04 514.18 310.28 509.36 285.84 501.68C287.16 493.46 294.9 427.14 289.22 371.68C289.026 369.634 289.243 367.57 289.858 365.61C290.474 363.649 291.475 361.831 292.804 360.264C294.133 358.696 295.762 357.411 297.596 356.483C299.429 355.555 301.43 355.003 303.48 354.86Z" fill="#263238"/>
<path id="Vector_44" d="M307.58 381.42L304.54 387.64C303.54 389.773 302.56 391.933 301.6 394.12C299.6 398.46 297.9 402.84 296.2 407.24C294.5 411.64 293.04 416.08 291.7 420.5C290.431 424.87 289.389 429.302 288.58 433.78L286.58 426.96C288.289 429.2 290.578 430.929 293.2 431.96C296.561 433.298 300.097 434.147 303.7 434.48C307.685 434.904 311.697 435.017 315.7 434.82C319.837 434.662 323.962 434.288 328.06 433.7H328.36C329.556 433.535 330.772 433.81 331.78 434.475C332.789 435.139 333.521 436.148 333.842 437.312C334.162 438.476 334.049 439.717 333.522 440.804C332.996 441.891 332.092 442.75 330.98 443.22C328.64 444.22 326.54 444.96 324.28 445.68C322.02 446.4 319.8 447.04 317.5 447.56C312.815 448.68 308.033 449.35 303.22 449.56C298.001 449.818 292.775 449.238 287.74 447.84C281.892 446.242 276.629 442.992 272.58 438.48C271.831 437.62 271.267 436.615 270.923 435.528C270.579 434.441 270.462 433.294 270.58 432.16V431.66C271.094 426.277 271.955 420.932 273.16 415.66C274.38 410.52 275.8 405.46 277.48 400.54C279.16 395.62 281.02 390.76 283.08 386.02C284.12 383.64 285.18 381.3 286.3 378.96C287.42 376.62 288.54 374.36 289.92 371.88C291.208 369.663 293.298 368.026 295.759 367.306C298.22 366.586 300.863 366.839 303.142 368.012C305.422 369.186 307.164 371.189 308.008 373.61C308.853 376.031 308.735 378.683 307.68 381.02L307.58 381.42Z" fill="#E7B29D"/>
<path id="Vector_45" d="M323.18 434.7L331.18 425.72L344.28 437.72C344.28 437.72 335.38 447.6 325.94 442.42L323.18 434.7Z" fill="#E7B29D"/>
<path id="Vector_46" d="M344.24 422.26L349.5 427.76C349.93 428.212 350.258 428.751 350.462 429.34C350.667 429.929 350.743 430.555 350.687 431.176C350.63 431.797 350.441 432.399 350.133 432.941C349.825 433.483 349.404 433.953 348.9 434.32L344.24 437.7L331.14 425.7L338.98 421.42C339.828 420.966 340.802 420.802 341.752 420.954C342.702 421.105 343.576 421.564 344.24 422.26Z" fill="#E7B29D"/>
<path id="Vector_47" d="M296.36 357.18C284.36 364.54 272.36 403.6 272.36 403.6L303.96 415.2C309.812 405.926 314.203 395.808 316.98 385.2C321.76 367.1 309.62 349.08 296.36 357.18Z" fill="#263238"/>
<g id="arm">
<path id="Vector_48" d="M363.78 357.149C363.52 357.139 364.14 357.161 364.439 357.172L365.655 357.314C366.535 357.345 367.41 357.495 368.349 357.528C370.208 357.593 372.147 357.661 374.086 357.729C378.088 357.748 382.101 357.448 386.115 357.108C388.123 356.918 390.132 356.688 392.144 356.378C394.156 356.068 396.167 355.778 398.299 355.472L404.503 354.328L410.692 353.023L402.983 361.759C403.736 358.173 404.119 354.518 404.124 350.853C404.12 346.869 403.864 342.89 403.359 338.939C402.859 334.919 402.169 330.812 401.288 326.619C400.448 322.587 399.358 318.267 398.354 314.369L398.247 314.005C397.907 312.637 398.059 311.193 398.678 309.926C399.296 308.659 400.341 307.65 401.629 307.077C402.917 306.504 404.365 306.402 405.721 306.79C407.076 307.178 408.251 308.031 409.041 309.199C411.628 313.194 413.916 317.374 415.889 321.705C417.88 326.037 419.583 330.495 420.986 335.052C422.445 339.755 423.508 344.571 424.165 349.451C424.875 354.642 424.953 359.899 424.399 365.109C424.177 367.047 423.4 368.881 422.162 370.389C420.923 371.897 419.276 373.015 417.418 373.61L416.689 373.845L409.93 376.011C407.645 376.671 405.362 377.292 403.044 377.771C398.395 378.964 393.686 379.909 388.937 380.601C384.058 381.33 379.137 381.74 374.205 381.827C371.686 381.739 369.162 381.831 366.55 381.56C365.25 381.515 363.916 381.328 362.562 381.141L360.452 380.807C359.657 380.659 359.159 380.582 357.811 380.234C354.828 379.362 352.301 377.366 350.76 374.668C349.219 371.97 348.785 368.78 349.549 365.768C350.312 362.756 352.214 360.158 354.855 358.52C357.495 356.882 360.668 356.332 363.705 356.986L363.78 357.149Z" fill="#E7B29D"/>
<path id="Vector_49" d="M396.388 313.94L390.912 303.983L408.077 299.559C408.077 299.559 411.281 307.516 409.614 312.841C409.271 313.86 408.635 314.756 407.787 315.417C406.938 316.078 405.914 316.474 404.841 316.557L401.79 316.83C400.706 316.923 399.619 316.699 398.66 316.186C397.701 315.673 396.912 314.893 396.388 313.94V313.94Z" fill="#E7B29D"/>
<path id="Vector_50" d="M395.612 288.578L400.328 288.202C401.748 288.107 403.155 288.52 404.298 289.366C405.441 290.212 406.247 291.437 406.571 292.823L408.077 299.559L390.912 303.983L390.166 294.972C390.056 293.405 390.566 291.858 391.584 290.663C392.602 289.467 394.048 288.719 395.612 288.578V288.578Z" fill="#E7B29D"/>
<path id="Vector_51" d="M345.716 352.936C359.665 354.643 390.208 352.208 390.208 352.208L390.633 390.486C380.168 393.497 369.06 393.457 358.617 390.369C340.55 385.095 330.312 351.057 345.716 352.936Z" fill="#263238"/>
</g>
<path id="Vector_52" d="M322.8 316.74C324.44 327.66 325.66 347.56 317.76 354.44C323.38 360.54 331.52 368.44 344.36 369.5C352.5 365.92 354.56 360.78 351.38 355.96C339.38 352.54 340.16 343.6 342.64 335.3L322.8 316.74Z" fill="#E7B29D"/>
<path id="Vector_53" opacity="0.2" d="M330.9 324.32L342.64 335.28C342.029 337.239 341.588 339.246 341.32 341.28C336.76 340.42 330.66 335.06 330.38 330.22C330.176 328.238 330.353 326.236 330.9 324.32Z" fill="black"/>
<path id="Vector_54" d="M346.4 280C361.36 290 348.56 306 348.56 306C348.56 306 341.14 292.88 346.4 280Z" fill="#263238"/>
<path id="Vector_55" d="M314.9 305.08C318.46 319.32 319.82 327.84 328.46 333.88C341.48 342.98 358.04 333.08 358.82 318.06C359.5 304.54 353.56 283.5 338.4 280.38C335.055 279.667 331.583 279.823 328.316 280.834C325.049 281.845 322.096 283.677 319.739 286.154C317.381 288.632 315.699 291.673 314.851 294.986C314.004 298.3 314.021 301.775 314.9 305.08Z" fill="#E7B29D"/>
<path id="Vector_56" opacity="0.2" d="M347.78 289.24C342.604 289.773 337.489 290.784 332.5 292.26C341.08 290.84 347.78 289.24 347.78 289.24Z" fill="black"/>
<path id="Vector_57" d="M318.94 315.02C324.94 314.42 322.26 305.24 319.94 303.16C324.6 301.16 328.52 293.34 325.26 289.16C342.52 290.5 352.38 288.66 353.7 273.16C348.76 274.16 343.56 269.16 336.92 273.82C337.403 272.859 337.683 271.809 337.742 270.735C337.801 269.66 337.637 268.586 337.262 267.578C336.886 266.57 336.307 265.65 335.56 264.876C334.813 264.102 333.914 263.491 332.92 263.08C332.92 263.08 331.84 273.08 324.26 274.58C316.68 276.08 308.66 281.4 308.16 287C306.36 282.38 304.5 282.08 304.5 282.08C305.352 283.81 305.795 285.712 305.795 287.64C305.795 289.568 305.352 291.47 304.5 293.2C301.66 299.58 306.5 301.68 306.5 301.68C306.5 301.68 300.3 301.68 304.2 310.04C307.08 315.88 317.6 323.38 318.94 315.02Z" fill="#263238"/>
<path id="Vector_58" d="M311.02 318.46C312.905 321.378 315.867 323.434 319.26 324.18C323.76 325.12 325.7 321.02 324.2 316.92C322.84 313.24 318.88 308.32 314.48 309.22C313.522 309.431 312.633 309.879 311.892 310.521C311.152 311.164 310.584 311.982 310.24 312.9C309.896 313.818 309.787 314.808 309.923 315.779C310.06 316.75 310.437 317.672 311.02 318.46Z" fill="#E7B29D"/>
<path id="Vector_59" d="M248.3 780.16L217.88 770.52L220.76 761.44L254.94 769.06L248.3 780.16Z" fill="#9DE5E7"/>
<path id="Vector_60" opacity="0.3" d="M248.3 780.16L217.88 770.52L220.76 761.44L254.94 769.06L248.3 780.16Z" fill="black"/>
<path id="Vector_61" d="M340.54 797.48L310.68 797.96L310.52 788.3L342.46 787.28L340.54 797.48Z" fill="#9DE5E7"/>
<path id="Vector_62" opacity="0.3" d="M340.54 797.48L310.68 797.96L310.52 788.3L342.46 787.28L340.54 797.48Z" fill="black"/>
<path id="Vector_63" d="M339.74 304.62C339.92 305.8 340.68 306.62 341.46 306.62C342.24 306.62 342.72 305.46 342.54 304.28C342.36 303.1 341.6 302.28 340.82 302.28C340.04 302.28 339.56 303.44 339.74 304.62Z" fill="#263238"/>
<path id="Vector_64" d="M353.08 302.64C353.26 303.82 354.02 304.64 354.8 304.64C355.58 304.64 356.06 303.48 355.88 302.3C355.7 301.12 354.94 300.3 354.16 300.3C353.38 300.3 352.9 301.46 353.08 302.64Z" fill="#263238"/>
<path id="Vector_65" opacity="0.2" d="M348.94 303.84C350.877 307.245 353.28 310.361 356.08 313.1C355.36 313.797 354.497 314.328 353.55 314.656C352.604 314.984 351.597 315.101 350.6 315L348.94 303.84Z" fill="black"/>
<path id="Vector_66" d="M346.26 319.54C344.933 319.744 343.579 319.672 342.281 319.328C340.984 318.984 339.771 318.375 338.72 317.54C338.686 317.51 338.658 317.473 338.638 317.432C338.618 317.391 338.606 317.347 338.604 317.301C338.601 317.256 338.607 317.21 338.622 317.167C338.637 317.124 338.66 317.084 338.69 317.05C338.72 317.016 338.757 316.988 338.798 316.968C338.839 316.948 338.883 316.936 338.929 316.934C338.974 316.931 339.02 316.937 339.063 316.952C339.106 316.967 339.146 316.99 339.18 317.02C340.371 317.905 341.755 318.497 343.218 318.747C344.681 318.997 346.182 318.899 347.6 318.46C347.643 318.448 347.689 318.445 347.733 318.45C347.778 318.456 347.821 318.47 347.86 318.492C347.899 318.515 347.933 318.544 347.961 318.58C347.988 318.616 348.008 318.657 348.02 318.7C348.035 318.745 348.041 318.792 348.037 318.839C348.033 318.886 348.019 318.931 347.997 318.973C347.974 319.014 347.943 319.05 347.906 319.079C347.869 319.108 347.826 319.129 347.78 319.14C347.284 319.31 346.776 319.444 346.26 319.54Z" fill="#263238"/>
<path id="Vector_67" d="M332.62 301.52C332.509 301.55 332.391 301.55 332.28 301.52C332.195 301.482 332.119 301.426 332.056 301.357C331.994 301.289 331.946 301.208 331.916 301.119C331.886 301.031 331.875 300.938 331.882 300.845C331.89 300.752 331.916 300.662 331.96 300.58C332.437 299.575 333.146 298.699 334.03 298.024C334.913 297.349 335.945 296.895 337.04 296.7C337.225 296.683 337.409 296.738 337.555 296.853C337.7 296.969 337.795 297.136 337.82 297.32C337.837 297.505 337.782 297.689 337.667 297.835C337.551 297.98 337.384 298.075 337.2 298.1C336.331 298.258 335.512 298.624 334.816 299.167C334.119 299.711 333.565 300.415 333.2 301.22C333.132 301.31 333.044 301.384 332.944 301.435C332.844 301.487 332.733 301.516 332.62 301.52Z" fill="#263238"/>
<path id="Vector_68" d="M355.64 296.96C355.525 296.966 355.409 296.944 355.305 296.895C355.2 296.847 355.109 296.773 355.04 296.68C354.54 295.955 353.875 295.36 353.099 294.943C352.324 294.525 351.46 294.298 350.58 294.28C350.394 294.28 350.216 294.206 350.085 294.075C349.954 293.944 349.88 293.766 349.88 293.58C349.88 293.394 349.954 293.216 350.085 293.085C350.216 292.954 350.394 292.88 350.58 292.88C351.691 292.886 352.785 293.157 353.77 293.672C354.754 294.187 355.601 294.931 356.24 295.84C356.295 295.914 356.335 295.997 356.358 296.086C356.381 296.175 356.386 296.268 356.373 296.359C356.36 296.45 356.329 296.538 356.282 296.617C356.235 296.696 356.174 296.765 356.1 296.82C355.967 296.917 355.805 296.966 355.64 296.96Z" fill="#263238"/>
<path id="Vector_69" d="M236.44 798.22C235.269 797.633 234.169 796.916 233.16 796.08C233.104 796.041 233.063 795.984 233.041 795.92C233.019 795.855 233.019 795.785 233.04 795.72C233.059 795.652 233.098 795.591 233.151 795.545C233.204 795.499 233.27 795.469 233.34 795.46C233.96 795.46 239.54 794.76 240.66 796.22C240.787 796.383 240.865 796.578 240.886 796.783C240.908 796.988 240.871 797.195 240.78 797.38C240.669 797.707 240.48 798.001 240.229 798.238C239.978 798.475 239.673 798.648 239.34 798.74C238.342 798.897 237.321 798.714 236.44 798.22ZM234.28 796C235.591 797.267 237.337 797.982 239.16 798C239.386 797.936 239.592 797.817 239.76 797.653C239.928 797.488 240.052 797.285 240.12 797.06C240.12 796.8 240.12 796.68 240.12 796.6C239.52 796 236.52 795.88 234.28 796Z" fill="#9DE5E7"/>
<path id="Vector_70" d="M233.22 796.14C233.164 796.104 233.116 796.056 233.08 796C233.05 795.945 233.035 795.883 233.035 795.82C233.035 795.757 233.05 795.695 233.08 795.64C233.08 795.48 235.3 791.78 237.46 791.22C237.719 791.147 237.99 791.131 238.256 791.173C238.522 791.214 238.775 791.312 239 791.46C239.232 791.578 239.419 791.769 239.531 792.004C239.643 792.24 239.675 792.505 239.62 792.76C239.2 794.38 235.14 796.06 233.4 796.16L233.22 796.14ZM238.48 791.98C238.202 791.879 237.898 791.879 237.62 791.98C236.24 792.34 234.76 794.38 234.08 795.44C235.94 795.04 238.68 793.62 238.94 792.66C238.94 792.66 238.94 792.38 238.62 792.12L238.48 791.98Z" fill="#9DE5E7"/>
<path id="Vector_71" d="M331.6 817.38C331.541 817.361 331.488 817.327 331.446 817.282C331.404 817.236 331.374 817.18 331.36 817.12C331.352 817.046 331.364 816.972 331.396 816.904C331.428 816.837 331.478 816.78 331.54 816.74C332.2 816.4 338.12 813.28 339.92 814.26C340.093 814.346 340.24 814.476 340.346 814.638C340.451 814.8 340.511 814.987 340.52 815.18C340.558 815.497 340.52 815.819 340.409 816.118C340.298 816.417 340.116 816.685 339.88 816.9C338.28 818.36 334.04 817.84 331.64 817.4L331.6 817.38ZM339.46 814.82C338.34 814.44 335.14 815.72 332.8 816.82C336.08 817.32 338.52 817.14 339.42 816.32C339.571 816.175 339.686 815.996 339.756 815.798C339.825 815.6 339.847 815.388 339.82 815.18C339.823 815.105 339.804 815.031 339.765 814.967C339.725 814.903 339.668 814.852 339.6 814.82H339.46Z" fill="#9DE5E7"/>
<path id="Vector_72" d="M331.6 817.38H331.5C331.448 817.346 331.407 817.298 331.383 817.241C331.358 817.184 331.35 817.121 331.36 817.06C331.36 816.9 331.7 812.9 333.56 811.34C333.831 811.1 334.148 810.919 334.493 810.809C334.837 810.699 335.2 810.662 335.56 810.7C336.52 810.7 336.82 811.26 336.88 811.66C337.18 813.34 333.7 816.58 331.92 817.42C331.868 817.444 331.811 817.454 331.754 817.447C331.698 817.44 331.644 817.416 331.6 817.38ZM335.8 811.38H335.44C335.184 811.356 334.927 811.384 334.682 811.463C334.438 811.542 334.213 811.67 334.02 811.84C332.933 813.142 332.276 814.749 332.14 816.44C333.94 815.32 336.3 812.76 336.14 811.76C336.12 811.68 336.1 811.52 335.8 811.42V811.38Z" fill="#9DE5E7"/>
<g id="ring">
<path id="Vector_73" d="M203.3 322.52C200.931 301.305 202.019 279.847 206.52 258.98L208.52 259.44C204.072 280.098 202.998 301.339 205.34 322.34L203.3 322.52ZM213.3 243.28L211.44 242.6C213.285 237.587 215.477 232.708 218 228L219.78 228.94C217.282 233.566 215.103 238.357 213.26 243.28H213.3Z" fill="#9DE5E7"/>
<path id="Vector_74" d="M273.82 192.8C340.38 179.5 430.24 255.88 474.56 363.38C518.88 470.88 500.86 568.82 434.34 582.1C367.82 595.38 278 519.02 233.6 411.52C189.2 304.02 207.3 206 273.82 192.8ZM268.58 404.54C307.74 499.56 382.58 568 435.5 557.4C488.42 546.8 499.74 461.2 460.58 366.18C421.42 271.16 346.58 202.7 293.64 213.3C240.7 223.9 229.4 309.5 268.58 404.54ZM215.2 352.8C219.36 345.5 243.98 335.78 249.42 341.2L215.2 352.8ZM463.42 541.34C469.68 540.58 475.84 555.66 471.66 561.24L463.42 541.34ZM370.6 240.14C374.8 239 378.48 233.22 378.98 229.84L370.6 240.14Z" fill="white"/>
<path id="Vector_75" d="M418.9 584.6C354.16 584.6 273.72 511.46 232.68 411.9C204.12 342.66 200.5 273.28 223.2 230.84C234.54 209.64 251.98 196.14 273.62 191.82C340.5 178.46 431.06 255.24 475.48 363C504.02 432.26 507.66 501.64 484.94 544.06C481.555 550.476 477.361 556.432 472.46 561.78C462.439 572.73 449.168 580.175 434.6 583.02C429.432 584.066 424.173 584.596 418.9 584.6ZM216.32 352.9C220.622 372.822 226.713 392.314 234.52 411.14C278.52 518.04 368.14 594.3 434.14 581.14C448.287 578.371 461.177 571.145 470.92 560.52C472.92 557.46 471.74 551.14 469.3 546.94C467.62 544.02 465.6 542.34 463.8 542.34C456.42 550.584 446.556 556.2 435.7 558.34C382.32 569.04 306.94 500.16 267.7 404.88C259.218 384.508 252.806 363.335 248.56 341.68C247.28 340.64 244.7 340.34 241.22 340.8C232 342 219.52 348.16 216.32 352.9ZM269.5 404.16C308.44 498.6 382.82 566.92 435.32 556.42C450.76 553.34 462.8 543.9 471.12 528.42C490.36 492.42 485.96 430.42 459.64 366.64C420.7 272.18 346.34 203.88 293.84 214.36C278.38 217.44 266.32 226.9 258 242.36C238.78 278.32 243.18 340.3 269.5 404.16ZM465.34 540.56C467.837 541.581 469.867 543.491 471.04 545.92C473.021 549.273 474.045 553.106 474 557C477.53 552.693 480.619 548.043 483.22 543.12C505.66 501.22 502 432.48 473.68 363.76C451.14 309.08 416.68 262.42 379.68 231.64C378.395 235.312 375.889 238.433 372.58 240.48C406.76 267.98 439.76 312.8 461.62 365.8C488.16 430.18 492.52 492.82 473.02 529.28C470.847 533.289 468.274 537.069 465.34 540.56ZM274 193.78C252.96 197.98 236 211.12 224.94 231.78C209.2 261.2 206.3 303.78 215.78 350.36C220.66 345.16 232.68 339.94 240.88 338.84C243.255 338.4 245.701 338.523 248.02 339.2C240.94 300 243.52 265.2 256.22 241.4C264.72 225.52 277.58 215.4 293.42 212.3C316.6 207.68 343.94 218.04 370.66 239.06C374.02 237.88 377.12 233.24 377.86 230.24C342.92 201.78 305.74 187.44 274 193.78Z" fill="#9DE5E7"/>
</g>
<g id="scope">
<path id="Vector_76" d="M364.16 306.5L426.5 300.06L425.02 288.74L363.12 298.5L364.16 306.5Z" fill="#9DE5E7"/>
<path id="Vector_77" opacity="0.2" d="M399.12 292.82L400.42 302.74L426.48 300.06L425 288.74L399.12 292.82Z" fill="black"/>
<path id="Vector_78" d="M403.78 302.16C403.861 302.63 404.107 303.055 404.474 303.359C404.84 303.663 405.304 303.827 405.78 303.82L478.08 297.14C480.96 296.76 478.5 277.94 475.64 278.32L404.02 290.32C403.54 290.421 403.114 290.695 402.823 291.089C402.531 291.484 402.395 291.972 402.44 292.46L403.78 302.16Z" fill="#9DE5E7"/>
<path id="Vector_79" d="M364.38 308.14C364.706 308.1 365.003 307.932 365.206 307.673C365.408 307.415 365.5 307.086 365.46 306.76L364.3 297.92C364.255 297.592 364.083 297.295 363.821 297.093C363.559 296.891 363.228 296.8 362.9 296.84C362.576 296.89 362.284 297.063 362.086 297.325C361.888 297.586 361.8 297.915 361.84 298.24L363 307.08C363.02 307.241 363.071 307.396 363.152 307.537C363.232 307.677 363.339 307.801 363.468 307.899C363.596 307.998 363.743 308.07 363.9 308.111C364.056 308.153 364.22 308.162 364.38 308.14Z" fill="#9DE5E7"/>
</g>
</g>
<g id="robot" clip-path="url(#clip0)">
<path id="Vector_80" opacity="0.5" d="M649.482 248.042L639.533 244.42L644.361 231.154L660.944 237.19L649.482 248.042Z" fill="#1E7171"/>
<g id="Group">
<path id="Vector_81" d="M699.231 266.148L689.281 262.527L687.476 246.847L704.059 252.882L699.231 266.148Z" fill="#1E7171"/>
<path id="Vector_82" opacity="0.5" d="M696.688 195.739L686.739 192.117L678.892 213.675L688.842 217.296L696.688 195.739Z" fill="#1E7171"/>
</g>
<path id="Vector_83" opacity="0.5" d="M716.752 156.092C718.752 150.597 715.919 144.521 710.424 142.521C704.929 140.521 698.853 143.355 696.853 148.849C695.513 152.531 696.346 156.473 698.692 159.275L692.774 175.534L702.724 179.156L708.642 162.897C712.241 162.258 715.412 159.774 716.752 156.092Z" fill="#1E7171"/>
<path id="Vector_84" d="M710.424 142.521L697.749 177.345L702.724 179.156L708.642 162.897C712.241 162.258 715.412 159.774 716.752 156.092C718.752 150.597 715.919 144.521 710.424 142.521Z" fill="#1E7171"/>
<path id="Vector_85" opacity="0.5" d="M700.462 180.211L663.98 166.932L660.359 176.882L696.841 190.16L700.462 180.211Z" fill="#1E7171"/>
<path id="Vector_86" d="M730.311 191.075L693.829 177.796L690.208 187.746L726.69 201.024L730.311 191.075Z" fill="#1E7171"/>
<path id="Vector_87" d="M728.506 175.394L675.441 156.08L662.163 192.562L715.228 211.876L728.506 175.394Z" fill="#9DE5E7"/>
<path id="Vector_88" d="M728.507 175.394L701.974 165.737L688.696 202.219L715.228 211.876L728.507 175.394Z" fill="#9DE5E7"/>
<path id="Vector_89" d="M704.974 219.412L665.175 204.926L649.482 248.042L689.281 262.527L704.974 219.412Z" fill="#9DE5E7"/>
<path id="Vector_90" d="M704.974 219.412L685.074 212.169L669.382 255.284L689.281 262.527L704.974 219.412Z" fill="#9DE5E7"/>
<path id="Vector_91" d="M683.78 181.65C686.528 182.65 689.566 181.234 690.566 178.486C691.566 175.739 690.149 172.701 687.401 171.701C684.654 170.701 681.616 172.117 680.616 174.865C679.616 177.612 681.033 180.65 683.78 181.65Z" fill="#1E7171"/>
<g id="Group_2">
<path id="Vector_92" d="M706.996 190.1C709.744 191.1 712.782 189.684 713.782 186.936C714.782 184.189 713.365 181.151 710.617 180.151C707.87 179.151 704.832 180.567 703.832 183.315C702.832 186.062 704.249 189.1 706.996 190.1Z" fill="#1E7171"/>
<path id="Vector_93" d="M687.549 186.778C686.216 190.441 688.104 194.493 691.768 195.826C695.431 197.159 699.482 195.27 700.815 191.607L687.549 186.778Z" fill="#1E7171"/>
</g>
<path id="Vector_94" opacity="0.5" d="M691.403 225.74L671.503 218.497L664.26 238.397L684.16 245.64L691.403 225.74Z" fill="#1E7171"/>
<path id="Vector_95" d="M691.402 225.74L681.453 222.119L674.21 242.018L684.16 245.639L691.402 225.74Z" fill="#1E7171"/>
</g>
<g id="bulb">
<path id="Vector_96" opacity="0.4" d="M570.146 243.979C568.679 238.447 565.872 233.339 561.987 229.131C558.102 224.922 553.265 221.751 547.929 219.914C542.593 218.077 536.932 217.633 531.473 218.624C526.015 219.616 520.937 222.009 516.715 225.582C512.492 229.155 509.263 233.79 507.328 239.056C505.393 244.321 504.816 250.044 505.65 255.691C506.484 261.337 508.702 266.724 512.097 271.346C515.493 275.969 519.954 279.678 525.066 282.126C526.878 282.965 528.496 284.198 529.805 285.737C531.374 287.619 533.415 289.032 535.697 289.816C537.978 290.6 540.409 290.723 542.712 290.171L553.262 287.622C555.567 287.068 557.651 285.86 559.277 284.134C560.903 282.409 562.005 280.236 562.458 277.864C562.837 275.93 563.645 274.122 564.821 272.579C567.782 268.6 569.798 263.961 570.721 259.009C571.643 254.056 571.446 248.918 570.146 243.979Z" fill="#9DE5E7"/>
<path id="Vector_97" d="M558.637 294.236L541.3 298.413C540.671 298.562 540.002 298.449 539.438 298.1C538.874 297.751 538.461 297.193 538.289 296.548C538.204 296.223 538.182 295.885 538.226 295.555C538.27 295.225 538.378 294.91 538.544 294.627C538.71 294.344 538.931 294.099 539.193 293.907C539.456 293.715 539.755 293.58 540.073 293.509L557.402 289.337C558.031 289.188 558.7 289.3 559.264 289.649C559.828 289.998 560.241 290.556 560.413 291.201C560.499 291.526 560.521 291.863 560.478 292.192C560.435 292.521 560.328 292.836 560.162 293.119C559.997 293.401 559.777 293.646 559.515 293.837C559.253 294.029 558.955 294.164 558.637 294.236Z" fill="#9DE5E7"/>
<path id="Vector_98" d="M558.807 301.723L544.848 305.089C544.217 305.236 543.547 305.122 542.982 304.772C542.417 304.421 542.004 303.862 541.832 303.216C541.664 302.569 541.753 301.891 542.077 301.327C542.401 300.763 542.935 300.361 543.563 300.206L557.528 296.849C558.156 296.7 558.826 296.813 559.39 297.162C559.954 297.511 560.367 298.069 560.539 298.714C560.706 299.36 560.617 300.038 560.293 300.602C559.969 301.166 559.435 301.568 558.807 301.723Z" fill="#9DE5E7"/>
<path id="Vector_99" d="M553.547 288.033L553.467 288.079C553.339 288.124 553.197 288.114 553.072 288.054C552.947 287.994 552.848 287.887 552.796 287.756C552.407 286.755 546.567 271.305 544.805 258.12C543.446 258.586 541.942 259.025 540.288 259.429C538.633 259.833 537.082 260.128 535.652 260.329C540.609 272.735 543.073 289.019 543.239 290.063C543.26 290.202 543.226 290.342 543.145 290.452C543.064 290.562 542.942 290.634 542.806 290.65C542.67 290.667 542.531 290.628 542.421 290.541C542.31 290.455 542.236 290.328 542.215 290.189C542.172 289.932 539.602 272.974 534.596 260.461C523.882 261.745 519.827 257.665 518.507 255.645C517.747 254.548 517.332 253.249 517.318 251.927C517.305 250.605 517.694 249.324 518.433 248.262C519.952 246.233 522.594 245.639 525.484 246.642C529.412 248.05 532.644 253.096 535.243 259.315C536.701 259.122 538.278 258.788 540.017 258.409C541.757 258.029 543.284 257.528 544.678 257.041C543.901 250.383 544.258 244.442 547.025 241.448C549.078 239.221 551.7 238.552 554.03 239.645C555.198 240.25 556.166 241.201 556.802 242.369C557.438 243.537 557.712 244.864 557.585 246.171C557.418 248.558 555.856 253.945 545.777 257.718C547.55 271.007 553.639 287.11 553.736 287.36C553.795 287.479 553.809 287.615 553.774 287.74C553.738 287.865 553.657 287.97 553.547 288.033ZM545.671 256.676C555.271 252.972 556.461 247.8 556.584 246.112C556.702 245.013 556.482 243.892 555.952 242.905C555.422 241.917 554.609 241.112 553.626 240.601C551.712 239.697 549.527 240.285 547.782 242.187C545.292 244.923 544.958 250.434 545.652 256.724L545.671 256.676ZM520.464 247.837C519.985 248.113 519.566 248.484 519.231 248.929C518.617 249.825 518.299 250.903 518.318 252.013C518.338 253.123 518.695 254.211 519.341 255.127C520.289 256.565 523.882 260.581 534.171 259.48C531.715 253.632 528.708 248.935 525.16 247.674C524.4 247.36 523.588 247.212 522.779 247.24C521.969 247.268 521.18 247.471 520.464 247.837Z" fill="white"/>
</g>
</g>
<defs>
<clipPath id="clip0">
<rect width="120" height="120" fill="white" transform="translate(654.042 122) rotate(20)"/>
</clipPath>
</defs>
</svg>
