<svg width="761" height="801" viewBox="0 0 761 801" fill="none" xmlns="http://www.w3.org/2000/svg">
<g id="robot" clip-path="url(#clip0)">
<path id="Vector" opacity="0.5" d="M258.892 800.685H188.305V706.568H305.952L258.892 800.685Z" fill="#1E7171"/>
<path id="Vector_2" d="M611.833 800.685H541.246L494.186 706.568H611.833V800.685Z" fill="#269D9B"/>
<path id="Vector_3" opacity="0.5" d="M435.363 365.391H364.775V518.332H435.363V365.391Z" fill="#1E7171"/>
<path id="Vector_4" opacity="0.5" d="M470.656 71.2726C470.656 32.2898 439.052 0.68512 400.069 0.68512C361.086 0.68512 329.481 32.2898 329.481 71.2726C329.481 97.3945 343.685 120.188 364.775 132.395V247.743H435.363V132.396C456.455 120.188 470.656 97.3961 470.656 71.2726Z" fill="#1E7171"/>
<path id="Vector_5" d="M400.069 0.68512V247.744H435.363V132.396C456.455 120.188 470.656 97.3961 470.656 71.2742C470.656 32.2898 439.052 0.68512 400.069 0.68512Z" fill="#269D9B"/>
<path id="Vector_6" opacity="0.5" d="M423.599 259.508H164.775V330.096H423.599V259.508Z" fill="#1E7171"/>
<path id="Vector_7" d="M635.363 259.509H376.539V330.096H635.363V259.509Z" fill="#269D9B"/>
<path id="Vector_8" d="M588.303 165.391H211.833V424.215H588.303V165.391Z" fill="#9DE5E7"/>
<path id="Vector_9" d="M588.305 165.392H400.069V424.215H588.305V165.392Z" fill="#9DE5E7"/>
<path id="Vector_10" d="M541.246 494.802H258.892V800.685H541.246V494.802Z" fill="#9DE5E7"/>
<path id="Vector_11" d="M541.246 494.802H400.069V800.685H541.246V494.802Z" fill="#9DE5E7"/>
<path id="Vector_12" d="M322.375 306.566C341.867 306.566 357.669 290.765 357.669 271.273C357.669 251.78 341.867 235.979 322.375 235.979C302.883 235.979 287.082 251.78 287.082 271.273C287.082 290.765 302.883 306.566 322.375 306.566Z" fill="#269D9B"/>
<g id="Group">
<path id="Vector_13" d="M487.082 306.566C506.574 306.566 522.375 290.765 522.375 271.273C522.375 251.78 506.574 235.979 487.082 235.979C467.589 235.979 451.788 251.78 451.788 271.273C451.788 290.765 467.589 306.566 487.082 306.566Z" fill="#269D9B"/>
<path id="Vector_14" d="M357.678 330.098C357.678 356.085 378.747 377.157 404.738 377.157C430.725 377.157 451.797 356.087 451.797 330.098H357.678Z" fill="#269D9B"/>
</g>
<path id="Vector_15" opacity="0.5" d="M470.658 565.391H329.481V706.568H470.658V565.391Z" fill="#1E7171"/>
<path id="Vector_16" d="M470.656 565.391H400.069V706.568H470.656V565.391Z" fill="#269D9B"/>
</g>
<defs>
<clipPath id="clip0">
<rect width="800" height="800" fill="white" transform="translate(0.0689697 0.68512)"/>
</clipPath>
</defs>
</svg>
